<?xml version="1.0" encoding="utf-8" standalone="no"?>
<!DOCTYPE svg PUBLIC "-//W3C//DTD SVG 1.1//EN"
  "http://www.w3.org/Graphics/SVG/1.1/DTD/svg11.dtd">
<!-- Created with matplotlib (https://matplotlib.org/) -->
<svg height="432pt" version="1.1" viewBox="0 0 1008 432" width="1008pt" xmlns="http://www.w3.org/2000/svg" xmlns:xlink="http://www.w3.org/1999/xlink">
 <metadata>
  <rdf:RDF xmlns:cc="http://creativecommons.org/ns#" xmlns:dc="http://purl.org/dc/elements/1.1/" xmlns:rdf="http://www.w3.org/1999/02/22-rdf-syntax-ns#">
   <cc:Work>
    <dc:type rdf:resource="http://purl.org/dc/dcmitype/StillImage"/>
    <dc:date>2021-10-09T17:15:32.197817</dc:date>
    <dc:format>image/svg+xml</dc:format>
    <dc:creator>
     <cc:Agent>
      <dc:title>Matplotlib v3.3.4, https://matplotlib.org/</dc:title>
     </cc:Agent>
    </dc:creator>
   </cc:Work>
  </rdf:RDF>
 </metadata>
 <defs>
  <style type="text/css">*{stroke-linecap:butt;stroke-linejoin:round;}</style>
 </defs>
 <g id="figure_1">
  <g id="patch_1">
   <path d="M 0 432 
L 1008 432 
L 1008 0 
L 0 0 
z
" style="fill:none;"/>
  </g>
  <g id="axes_1">
   <g id="patch_2">
    <path d="M 126 378 
L 481.090909 378 
L 481.090909 51.84 
L 126 51.84 
z
" style="fill:none;"/>
   </g>
   <g id="line2d_1">
    <path clip-path="url(#pcb430fcd53)" d="M 142.140496 51.84 
L 143.795931 86.273627 
L 145.451367 111.691475 
L 147.106802 131.446215 
L 148.762238 147.370052 
L 150.417673 160.56 
L 152.073109 171.718304 
L 153.728544 181.31812 
L 155.38398 189.691436 
L 157.039415 197.078984 
L 158.694851 203.660147 
L 160.350286 209.5717 
L 162.005722 214.92 
L 163.661157 219.789161 
L 165.316592 224.246701 
L 166.972028 228.347528 
L 170.282899 235.652106 
L 173.59377 241.981877 
L 176.904641 247.536 
L 180.215512 252.460957 
L 183.526383 256.867217 
L 186.837254 260.839869 
L 190.148125 264.445663 
L 193.458996 267.737795 
L 196.769866 270.759253 
L 200.080737 273.545203 
L 203.391608 276.124732 
L 208.357915 279.65906 
L 213.324221 282.849349 
L 218.290528 285.748021 
L 223.256834 288.396957 
L 228.22314 290.830073 
L 234.844882 293.78585 
L 241.466624 296.46 
L 248.088366 298.894581 
L 254.710108 301.123351 
L 262.987285 303.661237 
L 271.264463 305.963307 
L 281.197076 308.462454 
L 291.129688 310.718329 
L 302.717737 313.091734 
L 314.305785 315.230479 
L 327.549269 317.433609 
L 340.792753 319.419935 
L 355.691672 321.436682 
L 372.246027 323.450261 
L 390.455817 325.434556 
L 410.321043 327.370149 
L 431.841704 329.243314 
L 455.0178 331.044979 
L 464.950413 331.758261 
L 464.950413 331.758261 
" style="fill:none;stroke:#1f77b4;stroke-linecap:square;stroke-width:1.5;"/>
   </g>
   <g id="mpl_toolkits.axisartist.axis_artist_1">
    <defs>
     <path d="M 0 0 
L 0 -3.5 
" id="mffa5321a1e" style="stroke:#000000;stroke-width:0.8;"/>
    </defs>
    <g>
     <use style="fill:none;stroke:#000000;stroke-width:0.8;" x="135.518754" xlink:href="#mffa5321a1e" y="378"/>
    </g>
    <g>
     <use style="fill:none;stroke:#000000;stroke-width:0.8;" x="176.904641" xlink:href="#mffa5321a1e" y="378"/>
    </g>
    <g>
     <use style="fill:none;stroke:#000000;stroke-width:0.8;" x="218.290528" xlink:href="#mffa5321a1e" y="378"/>
    </g>
    <g>
     <use style="fill:none;stroke:#000000;stroke-width:0.8;" x="259.676414" xlink:href="#mffa5321a1e" y="378"/>
    </g>
    <g>
     <use style="fill:none;stroke:#000000;stroke-width:0.8;" x="301.062301" xlink:href="#mffa5321a1e" y="378"/>
    </g>
    <g>
     <use style="fill:none;stroke:#000000;stroke-width:0.8;" x="342.448188" xlink:href="#mffa5321a1e" y="378"/>
    </g>
    <g>
     <use style="fill:none;stroke:#000000;stroke-width:0.8;" x="383.834075" xlink:href="#mffa5321a1e" y="378"/>
    </g>
    <g>
     <use style="fill:none;stroke:#000000;stroke-width:0.8;" x="425.219962" xlink:href="#mffa5321a1e" y="378"/>
    </g>
    <g>
     <use style="fill:none;stroke:#000000;stroke-width:0.8;" x="466.605849" xlink:href="#mffa5321a1e" y="378"/>
    </g>
    <g id="text_1">
     <!-- 0 -->
     <g transform="translate(132.337504 388.921875)scale(0.1 -0.1)">
      <defs>
       <path d="M 31.78125 66.40625 
Q 24.171875 66.40625 20.328125 58.90625 
Q 16.5 51.421875 16.5 36.375 
Q 16.5 21.390625 20.328125 13.890625 
Q 24.171875 6.390625 31.78125 6.390625 
Q 39.453125 6.390625 43.28125 13.890625 
Q 47.125 21.390625 47.125 36.375 
Q 47.125 51.421875 43.28125 58.90625 
Q 39.453125 66.40625 31.78125 66.40625 
z
M 31.78125 74.21875 
Q 44.046875 74.21875 50.515625 64.515625 
Q 56.984375 54.828125 56.984375 36.375 
Q 56.984375 17.96875 50.515625 8.265625 
Q 44.046875 -1.421875 31.78125 -1.421875 
Q 19.53125 -1.421875 13.0625 8.265625 
Q 6.59375 17.96875 6.59375 36.375 
Q 6.59375 54.828125 13.0625 64.515625 
Q 19.53125 74.21875 31.78125 74.21875 
z
" id="DejaVuSans-48"/>
      </defs>
      <use xlink:href="#DejaVuSans-48"/>
     </g>
    </g>
    <g id="text_2">
     <!-- 25 -->
     <g transform="translate(170.542141 388.921875)scale(0.1 -0.1)">
      <defs>
       <path d="M 19.1875 8.296875 
L 53.609375 8.296875 
L 53.609375 0 
L 7.328125 0 
L 7.328125 8.296875 
Q 12.9375 14.109375 22.625 23.890625 
Q 32.328125 33.6875 34.8125 36.53125 
Q 39.546875 41.84375 41.421875 45.53125 
Q 43.3125 49.21875 43.3125 52.78125 
Q 43.3125 58.59375 39.234375 62.25 
Q 35.15625 65.921875 28.609375 65.921875 
Q 23.96875 65.921875 18.8125 64.3125 
Q 13.671875 62.703125 7.8125 59.421875 
L 7.8125 69.390625 
Q 13.765625 71.78125 18.9375 73 
Q 24.125 74.21875 28.421875 74.21875 
Q 39.75 74.21875 46.484375 68.546875 
Q 53.21875 62.890625 53.21875 53.421875 
Q 53.21875 48.921875 51.53125 44.890625 
Q 49.859375 40.875 45.40625 35.40625 
Q 44.1875 33.984375 37.640625 27.21875 
Q 31.109375 20.453125 19.1875 8.296875 
z
" id="DejaVuSans-50"/>
       <path d="M 10.796875 72.90625 
L 49.515625 72.90625 
L 49.515625 64.59375 
L 19.828125 64.59375 
L 19.828125 46.734375 
Q 21.96875 47.46875 24.109375 47.828125 
Q 26.265625 48.1875 28.421875 48.1875 
Q 40.625 48.1875 47.75 41.5 
Q 54.890625 34.8125 54.890625 23.390625 
Q 54.890625 11.625 47.5625 5.09375 
Q 40.234375 -1.421875 26.90625 -1.421875 
Q 22.3125 -1.421875 17.546875 -0.640625 
Q 12.796875 0.140625 7.71875 1.703125 
L 7.71875 11.625 
Q 12.109375 9.234375 16.796875 8.0625 
Q 21.484375 6.890625 26.703125 6.890625 
Q 35.15625 6.890625 40.078125 11.328125 
Q 45.015625 15.765625 45.015625 23.390625 
Q 45.015625 31 40.078125 35.4375 
Q 35.15625 39.890625 26.703125 39.890625 
Q 22.75 39.890625 18.8125 39.015625 
Q 14.890625 38.140625 10.796875 36.28125 
z
" id="DejaVuSans-53"/>
      </defs>
      <use xlink:href="#DejaVuSans-50"/>
      <use x="63.623047" xlink:href="#DejaVuSans-53"/>
     </g>
    </g>
    <g id="text_3">
     <!-- 50 -->
     <g transform="translate(211.928028 388.921875)scale(0.1 -0.1)">
      <use xlink:href="#DejaVuSans-53"/>
      <use x="63.623047" xlink:href="#DejaVuSans-48"/>
     </g>
    </g>
    <g id="text_4">
     <!-- 75 -->
     <g transform="translate(253.313914 388.921875)scale(0.1 -0.1)">
      <defs>
       <path d="M 8.203125 72.90625 
L 55.078125 72.90625 
L 55.078125 68.703125 
L 28.609375 0 
L 18.3125 0 
L 43.21875 64.59375 
L 8.203125 64.59375 
z
" id="DejaVuSans-55"/>
      </defs>
      <use xlink:href="#DejaVuSans-55"/>
      <use x="63.623047" xlink:href="#DejaVuSans-53"/>
     </g>
    </g>
    <g id="text_5">
     <!-- 100 -->
     <g transform="translate(291.518551 388.921875)scale(0.1 -0.1)">
      <defs>
       <path d="M 12.40625 8.296875 
L 28.515625 8.296875 
L 28.515625 63.921875 
L 10.984375 60.40625 
L 10.984375 69.390625 
L 28.421875 72.90625 
L 38.28125 72.90625 
L 38.28125 8.296875 
L 54.390625 8.296875 
L 54.390625 0 
L 12.40625 0 
z
" id="DejaVuSans-49"/>
      </defs>
      <use xlink:href="#DejaVuSans-49"/>
      <use x="63.623047" xlink:href="#DejaVuSans-48"/>
      <use x="127.246094" xlink:href="#DejaVuSans-48"/>
     </g>
    </g>
    <g id="text_6">
     <!-- 125 -->
     <g transform="translate(332.904438 388.921875)scale(0.1 -0.1)">
      <use xlink:href="#DejaVuSans-49"/>
      <use x="63.623047" xlink:href="#DejaVuSans-50"/>
      <use x="127.246094" xlink:href="#DejaVuSans-53"/>
     </g>
    </g>
    <g id="text_7">
     <!-- 150 -->
     <g transform="translate(374.290325 388.921875)scale(0.1 -0.1)">
      <use xlink:href="#DejaVuSans-49"/>
      <use x="63.623047" xlink:href="#DejaVuSans-53"/>
      <use x="127.246094" xlink:href="#DejaVuSans-48"/>
     </g>
    </g>
    <g id="text_8">
     <!-- 175 -->
     <g transform="translate(415.676212 388.921875)scale(0.1 -0.1)">
      <use xlink:href="#DejaVuSans-49"/>
      <use x="63.623047" xlink:href="#DejaVuSans-55"/>
      <use x="127.246094" xlink:href="#DejaVuSans-53"/>
     </g>
    </g>
    <g id="text_9">
     <!-- 200 -->
     <g transform="translate(457.062099 388.921875)scale(0.1 -0.1)">
      <use xlink:href="#DejaVuSans-50"/>
      <use x="63.623047" xlink:href="#DejaVuSans-48"/>
      <use x="127.246094" xlink:href="#DejaVuSans-48"/>
     </g>
    </g>
    <g id="patch_3">
     <path d="M 126 378 
L 481.090909 378 
L 499.972875 378 
" style="fill:none;stroke:#000000;stroke-linecap:round;"/>
     <path d="M 491.972875 374 
L 499.972875 378 
L 491.972875 382 
L 491.972875 374 
z
" style="fill:#1f77b4;stroke:#000000;stroke-linecap:round;"/>
    </g>
    <g id="text_10">
     <!-- Number of iterations -->
     <g transform="translate(251.734517 401.6625)scale(0.1 -0.1)">
      <defs>
       <path d="M 9.8125 72.90625 
L 23.09375 72.90625 
L 55.421875 11.921875 
L 55.421875 72.90625 
L 64.984375 72.90625 
L 64.984375 0 
L 51.703125 0 
L 19.390625 60.984375 
L 19.390625 0 
L 9.8125 0 
z
" id="DejaVuSans-78"/>
       <path d="M 8.5 21.578125 
L 8.5 54.6875 
L 17.484375 54.6875 
L 17.484375 21.921875 
Q 17.484375 14.15625 20.5 10.265625 
Q 23.53125 6.390625 29.59375 6.390625 
Q 36.859375 6.390625 41.078125 11.03125 
Q 45.3125 15.671875 45.3125 23.6875 
L 45.3125 54.6875 
L 54.296875 54.6875 
L 54.296875 0 
L 45.3125 0 
L 45.3125 8.40625 
Q 42.046875 3.421875 37.71875 1 
Q 33.40625 -1.421875 27.6875 -1.421875 
Q 18.265625 -1.421875 13.375 4.4375 
Q 8.5 10.296875 8.5 21.578125 
z
M 31.109375 56 
z
" id="DejaVuSans-117"/>
       <path d="M 52 44.1875 
Q 55.375 50.25 60.0625 53.125 
Q 64.75 56 71.09375 56 
Q 79.640625 56 84.28125 50.015625 
Q 88.921875 44.046875 88.921875 33.015625 
L 88.921875 0 
L 79.890625 0 
L 79.890625 32.71875 
Q 79.890625 40.578125 77.09375 44.375 
Q 74.3125 48.1875 68.609375 48.1875 
Q 61.625 48.1875 57.5625 43.546875 
Q 53.515625 38.921875 53.515625 30.90625 
L 53.515625 0 
L 44.484375 0 
L 44.484375 32.71875 
Q 44.484375 40.625 41.703125 44.40625 
Q 38.921875 48.1875 33.109375 48.1875 
Q 26.21875 48.1875 22.15625 43.53125 
Q 18.109375 38.875 18.109375 30.90625 
L 18.109375 0 
L 9.078125 0 
L 9.078125 54.6875 
L 18.109375 54.6875 
L 18.109375 46.1875 
Q 21.1875 51.21875 25.484375 53.609375 
Q 29.78125 56 35.6875 56 
Q 41.65625 56 45.828125 52.96875 
Q 50 49.953125 52 44.1875 
z
" id="DejaVuSans-109"/>
       <path d="M 48.6875 27.296875 
Q 48.6875 37.203125 44.609375 42.84375 
Q 40.53125 48.484375 33.40625 48.484375 
Q 26.265625 48.484375 22.1875 42.84375 
Q 18.109375 37.203125 18.109375 27.296875 
Q 18.109375 17.390625 22.1875 11.75 
Q 26.265625 6.109375 33.40625 6.109375 
Q 40.53125 6.109375 44.609375 11.75 
Q 48.6875 17.390625 48.6875 27.296875 
z
M 18.109375 46.390625 
Q 20.953125 51.265625 25.265625 53.625 
Q 29.59375 56 35.59375 56 
Q 45.5625 56 51.78125 48.09375 
Q 58.015625 40.1875 58.015625 27.296875 
Q 58.015625 14.40625 51.78125 6.484375 
Q 45.5625 -1.421875 35.59375 -1.421875 
Q 29.59375 -1.421875 25.265625 0.953125 
Q 20.953125 3.328125 18.109375 8.203125 
L 18.109375 0 
L 9.078125 0 
L 9.078125 75.984375 
L 18.109375 75.984375 
z
" id="DejaVuSans-98"/>
       <path d="M 56.203125 29.59375 
L 56.203125 25.203125 
L 14.890625 25.203125 
Q 15.484375 15.921875 20.484375 11.0625 
Q 25.484375 6.203125 34.421875 6.203125 
Q 39.59375 6.203125 44.453125 7.46875 
Q 49.3125 8.734375 54.109375 11.28125 
L 54.109375 2.78125 
Q 49.265625 0.734375 44.1875 -0.34375 
Q 39.109375 -1.421875 33.890625 -1.421875 
Q 20.796875 -1.421875 13.15625 6.1875 
Q 5.515625 13.8125 5.515625 26.8125 
Q 5.515625 40.234375 12.765625 48.109375 
Q 20.015625 56 32.328125 56 
Q 43.359375 56 49.78125 48.890625 
Q 56.203125 41.796875 56.203125 29.59375 
z
M 47.21875 32.234375 
Q 47.125 39.59375 43.09375 43.984375 
Q 39.0625 48.390625 32.421875 48.390625 
Q 24.90625 48.390625 20.390625 44.140625 
Q 15.875 39.890625 15.1875 32.171875 
z
" id="DejaVuSans-101"/>
       <path d="M 41.109375 46.296875 
Q 39.59375 47.171875 37.8125 47.578125 
Q 36.03125 48 33.890625 48 
Q 26.265625 48 22.1875 43.046875 
Q 18.109375 38.09375 18.109375 28.8125 
L 18.109375 0 
L 9.078125 0 
L 9.078125 54.6875 
L 18.109375 54.6875 
L 18.109375 46.1875 
Q 20.953125 51.171875 25.484375 53.578125 
Q 30.03125 56 36.53125 56 
Q 37.453125 56 38.578125 55.875 
Q 39.703125 55.765625 41.0625 55.515625 
z
" id="DejaVuSans-114"/>
       <path id="DejaVuSans-32"/>
       <path d="M 30.609375 48.390625 
Q 23.390625 48.390625 19.1875 42.75 
Q 14.984375 37.109375 14.984375 27.296875 
Q 14.984375 17.484375 19.15625 11.84375 
Q 23.34375 6.203125 30.609375 6.203125 
Q 37.796875 6.203125 41.984375 11.859375 
Q 46.1875 17.53125 46.1875 27.296875 
Q 46.1875 37.015625 41.984375 42.703125 
Q 37.796875 48.390625 30.609375 48.390625 
z
M 30.609375 56 
Q 42.328125 56 49.015625 48.375 
Q 55.71875 40.765625 55.71875 27.296875 
Q 55.71875 13.875 49.015625 6.21875 
Q 42.328125 -1.421875 30.609375 -1.421875 
Q 18.84375 -1.421875 12.171875 6.21875 
Q 5.515625 13.875 5.515625 27.296875 
Q 5.515625 40.765625 12.171875 48.375 
Q 18.84375 56 30.609375 56 
z
" id="DejaVuSans-111"/>
       <path d="M 37.109375 75.984375 
L 37.109375 68.5 
L 28.515625 68.5 
Q 23.6875 68.5 21.796875 66.546875 
Q 19.921875 64.59375 19.921875 59.515625 
L 19.921875 54.6875 
L 34.71875 54.6875 
L 34.71875 47.703125 
L 19.921875 47.703125 
L 19.921875 0 
L 10.890625 0 
L 10.890625 47.703125 
L 2.296875 47.703125 
L 2.296875 54.6875 
L 10.890625 54.6875 
L 10.890625 58.5 
Q 10.890625 67.625 15.140625 71.796875 
Q 19.390625 75.984375 28.609375 75.984375 
z
" id="DejaVuSans-102"/>
       <path d="M 9.421875 54.6875 
L 18.40625 54.6875 
L 18.40625 0 
L 9.421875 0 
z
M 9.421875 75.984375 
L 18.40625 75.984375 
L 18.40625 64.59375 
L 9.421875 64.59375 
z
" id="DejaVuSans-105"/>
       <path d="M 18.3125 70.21875 
L 18.3125 54.6875 
L 36.8125 54.6875 
L 36.8125 47.703125 
L 18.3125 47.703125 
L 18.3125 18.015625 
Q 18.3125 11.328125 20.140625 9.421875 
Q 21.96875 7.515625 27.59375 7.515625 
L 36.8125 7.515625 
L 36.8125 0 
L 27.59375 0 
Q 17.1875 0 13.234375 3.875 
Q 9.28125 7.765625 9.28125 18.015625 
L 9.28125 47.703125 
L 2.6875 47.703125 
L 2.6875 54.6875 
L 9.28125 54.6875 
L 9.28125 70.21875 
z
" id="DejaVuSans-116"/>
       <path d="M 34.28125 27.484375 
Q 23.390625 27.484375 19.1875 25 
Q 14.984375 22.515625 14.984375 16.5 
Q 14.984375 11.71875 18.140625 8.90625 
Q 21.296875 6.109375 26.703125 6.109375 
Q 34.1875 6.109375 38.703125 11.40625 
Q 43.21875 16.703125 43.21875 25.484375 
L 43.21875 27.484375 
z
M 52.203125 31.203125 
L 52.203125 0 
L 43.21875 0 
L 43.21875 8.296875 
Q 40.140625 3.328125 35.546875 0.953125 
Q 30.953125 -1.421875 24.3125 -1.421875 
Q 15.921875 -1.421875 10.953125 3.296875 
Q 6 8.015625 6 15.921875 
Q 6 25.140625 12.171875 29.828125 
Q 18.359375 34.515625 30.609375 34.515625 
L 43.21875 34.515625 
L 43.21875 35.40625 
Q 43.21875 41.609375 39.140625 45 
Q 35.0625 48.390625 27.6875 48.390625 
Q 23 48.390625 18.546875 47.265625 
Q 14.109375 46.140625 10.015625 43.890625 
L 10.015625 52.203125 
Q 14.9375 54.109375 19.578125 55.046875 
Q 24.21875 56 28.609375 56 
Q 40.484375 56 46.34375 49.84375 
Q 52.203125 43.703125 52.203125 31.203125 
z
" id="DejaVuSans-97"/>
       <path d="M 54.890625 33.015625 
L 54.890625 0 
L 45.90625 0 
L 45.90625 32.71875 
Q 45.90625 40.484375 42.875 44.328125 
Q 39.84375 48.1875 33.796875 48.1875 
Q 26.515625 48.1875 22.3125 43.546875 
Q 18.109375 38.921875 18.109375 30.90625 
L 18.109375 0 
L 9.078125 0 
L 9.078125 54.6875 
L 18.109375 54.6875 
L 18.109375 46.1875 
Q 21.34375 51.125 25.703125 53.5625 
Q 30.078125 56 35.796875 56 
Q 45.21875 56 50.046875 50.171875 
Q 54.890625 44.34375 54.890625 33.015625 
z
" id="DejaVuSans-110"/>
       <path d="M 44.28125 53.078125 
L 44.28125 44.578125 
Q 40.484375 46.53125 36.375 47.5 
Q 32.28125 48.484375 27.875 48.484375 
Q 21.1875 48.484375 17.84375 46.4375 
Q 14.5 44.390625 14.5 40.28125 
Q 14.5 37.15625 16.890625 35.375 
Q 19.28125 33.59375 26.515625 31.984375 
L 29.59375 31.296875 
Q 39.15625 29.25 43.1875 25.515625 
Q 47.21875 21.78125 47.21875 15.09375 
Q 47.21875 7.46875 41.1875 3.015625 
Q 35.15625 -1.421875 24.609375 -1.421875 
Q 20.21875 -1.421875 15.453125 -0.5625 
Q 10.6875 0.296875 5.421875 2 
L 5.421875 11.28125 
Q 10.40625 8.6875 15.234375 7.390625 
Q 20.0625 6.109375 24.8125 6.109375 
Q 31.15625 6.109375 34.5625 8.28125 
Q 37.984375 10.453125 37.984375 14.40625 
Q 37.984375 18.0625 35.515625 20.015625 
Q 33.0625 21.96875 24.703125 23.78125 
L 21.578125 24.515625 
Q 13.234375 26.265625 9.515625 29.90625 
Q 5.8125 33.546875 5.8125 39.890625 
Q 5.8125 47.609375 11.28125 51.796875 
Q 16.75 56 26.8125 56 
Q 31.78125 56 36.171875 55.265625 
Q 40.578125 54.546875 44.28125 53.078125 
z
" id="DejaVuSans-115"/>
      </defs>
      <use xlink:href="#DejaVuSans-78"/>
      <use x="74.804688" xlink:href="#DejaVuSans-117"/>
      <use x="138.183594" xlink:href="#DejaVuSans-109"/>
      <use x="235.595703" xlink:href="#DejaVuSans-98"/>
      <use x="299.072266" xlink:href="#DejaVuSans-101"/>
      <use x="360.595703" xlink:href="#DejaVuSans-114"/>
      <use x="401.708984" xlink:href="#DejaVuSans-32"/>
      <use x="433.496094" xlink:href="#DejaVuSans-111"/>
      <use x="494.677734" xlink:href="#DejaVuSans-102"/>
      <use x="529.882812" xlink:href="#DejaVuSans-32"/>
      <use x="561.669922" xlink:href="#DejaVuSans-105"/>
      <use x="589.453125" xlink:href="#DejaVuSans-116"/>
      <use x="628.662109" xlink:href="#DejaVuSans-101"/>
      <use x="690.185547" xlink:href="#DejaVuSans-114"/>
      <use x="731.298828" xlink:href="#DejaVuSans-97"/>
      <use x="792.578125" xlink:href="#DejaVuSans-116"/>
      <use x="831.787109" xlink:href="#DejaVuSans-105"/>
      <use x="859.570312" xlink:href="#DejaVuSans-111"/>
      <use x="920.751953" xlink:href="#DejaVuSans-110"/>
      <use x="984.130859" xlink:href="#DejaVuSans-115"/>
     </g>
    </g>
   </g>
   <g id="mpl_toolkits.axisartist.axis_artist_2">
    <defs>
     <path d="M 0 0 
L 3.5 0 
" id="m9cadcb4d2b" style="stroke:#000000;stroke-width:0.8;"/>
    </defs>
    <g>
     <use style="fill:none;stroke:#000000;stroke-width:0.8;" x="135.518754" xlink:href="#m9cadcb4d2b" y="378"/>
    </g>
    <g>
     <use style="fill:none;stroke:#000000;stroke-width:0.8;" x="135.518754" xlink:href="#m9cadcb4d2b" y="312.768"/>
    </g>
    <g>
     <use style="fill:none;stroke:#000000;stroke-width:0.8;" x="135.518754" xlink:href="#m9cadcb4d2b" y="247.536"/>
    </g>
    <g>
     <use style="fill:none;stroke:#000000;stroke-width:0.8;" x="135.518754" xlink:href="#m9cadcb4d2b" y="182.304"/>
    </g>
    <g>
     <use style="fill:none;stroke:#000000;stroke-width:0.8;" x="135.518754" xlink:href="#m9cadcb4d2b" y="117.072"/>
    </g>
    <g>
     <use style="fill:none;stroke:#000000;stroke-width:0.8;" x="135.518754" xlink:href="#m9cadcb4d2b" y="51.84"/>
    </g>
    <g id="text_11">
     <!-- 0 -->
     <g transform="translate(125.656254 380.759375)scale(0.1 -0.1)">
      <use xlink:href="#DejaVuSans-48"/>
     </g>
    </g>
    <g id="text_12">
     <!-- 1 -->
     <g transform="translate(125.656254 315.527375)scale(0.1 -0.1)">
      <use xlink:href="#DejaVuSans-49"/>
     </g>
    </g>
    <g id="text_13">
     <!-- 2 -->
     <g transform="translate(125.656254 250.295375)scale(0.1 -0.1)">
      <use xlink:href="#DejaVuSans-50"/>
     </g>
    </g>
    <g id="text_14">
     <!-- 3 -->
     <g transform="translate(125.656254 185.063375)scale(0.1 -0.1)">
      <defs>
       <path d="M 40.578125 39.3125 
Q 47.65625 37.796875 51.625 33 
Q 55.609375 28.21875 55.609375 21.1875 
Q 55.609375 10.40625 48.1875 4.484375 
Q 40.765625 -1.421875 27.09375 -1.421875 
Q 22.515625 -1.421875 17.65625 -0.515625 
Q 12.796875 0.390625 7.625 2.203125 
L 7.625 11.71875 
Q 11.71875 9.328125 16.59375 8.109375 
Q 21.484375 6.890625 26.8125 6.890625 
Q 36.078125 6.890625 40.9375 10.546875 
Q 45.796875 14.203125 45.796875 21.1875 
Q 45.796875 27.640625 41.28125 31.265625 
Q 36.765625 34.90625 28.71875 34.90625 
L 20.21875 34.90625 
L 20.21875 43.015625 
L 29.109375 43.015625 
Q 36.375 43.015625 40.234375 45.921875 
Q 44.09375 48.828125 44.09375 54.296875 
Q 44.09375 59.90625 40.109375 62.90625 
Q 36.140625 65.921875 28.71875 65.921875 
Q 24.65625 65.921875 20.015625 65.03125 
Q 15.375 64.15625 9.8125 62.3125 
L 9.8125 71.09375 
Q 15.4375 72.65625 20.34375 73.4375 
Q 25.25 74.21875 29.59375 74.21875 
Q 40.828125 74.21875 47.359375 69.109375 
Q 53.90625 64.015625 53.90625 55.328125 
Q 53.90625 49.265625 50.4375 45.09375 
Q 46.96875 40.921875 40.578125 39.3125 
z
" id="DejaVuSans-51"/>
      </defs>
      <use xlink:href="#DejaVuSans-51"/>
     </g>
    </g>
    <g id="text_15">
     <!-- 4 -->
     <g transform="translate(125.656254 119.831375)scale(0.1 -0.1)">
      <defs>
       <path d="M 37.796875 64.3125 
L 12.890625 25.390625 
L 37.796875 25.390625 
z
M 35.203125 72.90625 
L 47.609375 72.90625 
L 47.609375 25.390625 
L 58.015625 25.390625 
L 58.015625 17.1875 
L 47.609375 17.1875 
L 47.609375 0 
L 37.796875 0 
L 37.796875 17.1875 
L 4.890625 17.1875 
L 4.890625 26.703125 
z
" id="DejaVuSans-52"/>
      </defs>
      <use xlink:href="#DejaVuSans-52"/>
     </g>
    </g>
    <g id="text_16">
     <!-- 5 -->
     <g transform="translate(125.656254 54.599375)scale(0.1 -0.1)">
      <use xlink:href="#DejaVuSans-53"/>
     </g>
    </g>
    <g id="patch_4">
     <path d="M 135.518754 378 
L 135.518754 51.84 
L 135.518754 32.958034 
" style="fill:none;stroke:#000000;stroke-linecap:round;"/>
     <path d="M 131.518754 40.958034 
L 135.518754 32.958034 
L 139.518754 40.958034 
L 131.518754 40.958034 
z
" style="fill:#1f77b4;stroke:#000000;stroke-linecap:round;"/>
    </g>
    <g id="text_17">
     <!-- cost -->
     <g transform="translate(118.576566 225.293437)rotate(-90)scale(0.1 -0.1)">
      <defs>
       <path d="M 48.78125 52.59375 
L 48.78125 44.1875 
Q 44.96875 46.296875 41.140625 47.34375 
Q 37.3125 48.390625 33.40625 48.390625 
Q 24.65625 48.390625 19.8125 42.84375 
Q 14.984375 37.3125 14.984375 27.296875 
Q 14.984375 17.28125 19.8125 11.734375 
Q 24.65625 6.203125 33.40625 6.203125 
Q 37.3125 6.203125 41.140625 7.25 
Q 44.96875 8.296875 48.78125 10.40625 
L 48.78125 2.09375 
Q 45.015625 0.34375 40.984375 -0.53125 
Q 36.96875 -1.421875 32.421875 -1.421875 
Q 20.0625 -1.421875 12.78125 6.34375 
Q 5.515625 14.109375 5.515625 27.296875 
Q 5.515625 40.671875 12.859375 48.328125 
Q 20.21875 56 33.015625 56 
Q 37.15625 56 41.109375 55.140625 
Q 45.0625 54.296875 48.78125 52.59375 
z
" id="DejaVuSans-99"/>
      </defs>
      <use xlink:href="#DejaVuSans-99"/>
      <use x="54.980469" xlink:href="#DejaVuSans-111"/>
      <use x="116.162109" xlink:href="#DejaVuSans-115"/>
      <use x="168.261719" xlink:href="#DejaVuSans-116"/>
     </g>
    </g>
   </g>
   <g id="text_18">
    <!-- Batch gradient descent -->
    <g transform="translate(233.43733 45.84)scale(0.12 -0.12)">
     <defs>
      <path d="M 19.671875 34.8125 
L 19.671875 8.109375 
L 35.5 8.109375 
Q 43.453125 8.109375 47.28125 11.40625 
Q 51.125 14.703125 51.125 21.484375 
Q 51.125 28.328125 47.28125 31.5625 
Q 43.453125 34.8125 35.5 34.8125 
z
M 19.671875 64.796875 
L 19.671875 42.828125 
L 34.28125 42.828125 
Q 41.5 42.828125 45.03125 45.53125 
Q 48.578125 48.25 48.578125 53.8125 
Q 48.578125 59.328125 45.03125 62.0625 
Q 41.5 64.796875 34.28125 64.796875 
z
M 9.8125 72.90625 
L 35.015625 72.90625 
Q 46.296875 72.90625 52.390625 68.21875 
Q 58.5 63.53125 58.5 54.890625 
Q 58.5 48.1875 55.375 44.234375 
Q 52.25 40.28125 46.1875 39.3125 
Q 53.46875 37.75 57.5 32.78125 
Q 61.53125 27.828125 61.53125 20.40625 
Q 61.53125 10.640625 54.890625 5.3125 
Q 48.25 0 35.984375 0 
L 9.8125 0 
z
" id="DejaVuSans-66"/>
      <path d="M 54.890625 33.015625 
L 54.890625 0 
L 45.90625 0 
L 45.90625 32.71875 
Q 45.90625 40.484375 42.875 44.328125 
Q 39.84375 48.1875 33.796875 48.1875 
Q 26.515625 48.1875 22.3125 43.546875 
Q 18.109375 38.921875 18.109375 30.90625 
L 18.109375 0 
L 9.078125 0 
L 9.078125 75.984375 
L 18.109375 75.984375 
L 18.109375 46.1875 
Q 21.34375 51.125 25.703125 53.5625 
Q 30.078125 56 35.796875 56 
Q 45.21875 56 50.046875 50.171875 
Q 54.890625 44.34375 54.890625 33.015625 
z
" id="DejaVuSans-104"/>
      <path d="M 45.40625 27.984375 
Q 45.40625 37.75 41.375 43.109375 
Q 37.359375 48.484375 30.078125 48.484375 
Q 22.859375 48.484375 18.828125 43.109375 
Q 14.796875 37.75 14.796875 27.984375 
Q 14.796875 18.265625 18.828125 12.890625 
Q 22.859375 7.515625 30.078125 7.515625 
Q 37.359375 7.515625 41.375 12.890625 
Q 45.40625 18.265625 45.40625 27.984375 
z
M 54.390625 6.78125 
Q 54.390625 -7.171875 48.1875 -13.984375 
Q 42 -20.796875 29.203125 -20.796875 
Q 24.46875 -20.796875 20.265625 -20.09375 
Q 16.0625 -19.390625 12.109375 -17.921875 
L 12.109375 -9.1875 
Q 16.0625 -11.328125 19.921875 -12.34375 
Q 23.78125 -13.375 27.78125 -13.375 
Q 36.625 -13.375 41.015625 -8.765625 
Q 45.40625 -4.15625 45.40625 5.171875 
L 45.40625 9.625 
Q 42.625 4.78125 38.28125 2.390625 
Q 33.9375 0 27.875 0 
Q 17.828125 0 11.671875 7.65625 
Q 5.515625 15.328125 5.515625 27.984375 
Q 5.515625 40.671875 11.671875 48.328125 
Q 17.828125 56 27.875 56 
Q 33.9375 56 38.28125 53.609375 
Q 42.625 51.21875 45.40625 46.390625 
L 45.40625 54.6875 
L 54.390625 54.6875 
z
" id="DejaVuSans-103"/>
      <path d="M 45.40625 46.390625 
L 45.40625 75.984375 
L 54.390625 75.984375 
L 54.390625 0 
L 45.40625 0 
L 45.40625 8.203125 
Q 42.578125 3.328125 38.25 0.953125 
Q 33.9375 -1.421875 27.875 -1.421875 
Q 17.96875 -1.421875 11.734375 6.484375 
Q 5.515625 14.40625 5.515625 27.296875 
Q 5.515625 40.1875 11.734375 48.09375 
Q 17.96875 56 27.875 56 
Q 33.9375 56 38.25 53.625 
Q 42.578125 51.265625 45.40625 46.390625 
z
M 14.796875 27.296875 
Q 14.796875 17.390625 18.875 11.75 
Q 22.953125 6.109375 30.078125 6.109375 
Q 37.203125 6.109375 41.296875 11.75 
Q 45.40625 17.390625 45.40625 27.296875 
Q 45.40625 37.203125 41.296875 42.84375 
Q 37.203125 48.484375 30.078125 48.484375 
Q 22.953125 48.484375 18.875 42.84375 
Q 14.796875 37.203125 14.796875 27.296875 
z
" id="DejaVuSans-100"/>
     </defs>
     <use xlink:href="#DejaVuSans-66"/>
     <use x="68.603516" xlink:href="#DejaVuSans-97"/>
     <use x="129.882812" xlink:href="#DejaVuSans-116"/>
     <use x="169.091797" xlink:href="#DejaVuSans-99"/>
     <use x="224.072266" xlink:href="#DejaVuSans-104"/>
     <use x="287.451172" xlink:href="#DejaVuSans-32"/>
     <use x="319.238281" xlink:href="#DejaVuSans-103"/>
     <use x="382.714844" xlink:href="#DejaVuSans-114"/>
     <use x="423.828125" xlink:href="#DejaVuSans-97"/>
     <use x="485.107422" xlink:href="#DejaVuSans-100"/>
     <use x="548.583984" xlink:href="#DejaVuSans-105"/>
     <use x="576.367188" xlink:href="#DejaVuSans-101"/>
     <use x="637.890625" xlink:href="#DejaVuSans-110"/>
     <use x="701.269531" xlink:href="#DejaVuSans-116"/>
     <use x="740.478516" xlink:href="#DejaVuSans-32"/>
     <use x="772.265625" xlink:href="#DejaVuSans-100"/>
     <use x="835.742188" xlink:href="#DejaVuSans-101"/>
     <use x="897.265625" xlink:href="#DejaVuSans-115"/>
     <use x="949.365234" xlink:href="#DejaVuSans-99"/>
     <use x="1004.345703" xlink:href="#DejaVuSans-101"/>
     <use x="1065.869141" xlink:href="#DejaVuSans-110"/>
     <use x="1129.248047" xlink:href="#DejaVuSans-116"/>
    </g>
   </g>
  </g>
  <g id="axes_2">
   <g id="patch_5">
    <path d="M 552.109091 378 
L 907.2 378 
L 907.2 51.84 
L 552.109091 51.84 
z
" style="fill:none;"/>
   </g>
   <g id="line2d_2">
    <path clip-path="url(#p268e06d7ee)" d="M 568.249587 52.027709 
L 569.905022 116.989576 
L 571.560458 103.222679 
L 573.215893 142.152786 
L 574.871329 132.2814 
L 576.526764 164.246298 
L 578.1822 167.758556 
L 579.837635 162.36204 
L 581.493071 193.233882 
L 583.148506 186.573019 
L 584.803942 207.092129 
L 586.459377 222.317367 
L 588.114812 230.096059 
L 589.770248 201.743766 
L 591.425683 216.130639 
L 593.081119 223.473721 
L 594.736554 229.687613 
L 596.39199 228.157917 
L 598.047425 238.933738 
L 599.702861 258.986976 
L 601.358296 254.240505 
L 603.013732 254.843664 
L 604.669167 257.000952 
L 606.324603 256.398829 
L 607.980038 248.239942 
L 609.635474 271.410071 
L 611.290909 264.870558 
L 612.946345 254.638907 
L 614.60178 272.11603 
L 616.257216 269.28684 
L 617.912651 270.561173 
L 619.568086 283.97076 
L 621.223522 281.726381 
L 622.878957 264.443731 
L 624.534393 268.864424 
L 626.189828 274.630243 
L 627.845264 277.74849 
L 629.500699 289.498104 
L 631.156135 285.594155 
L 632.81157 276.63467 
L 634.467006 281.800474 
L 636.122441 273.068626 
L 637.777877 274.023504 
L 639.433312 277.832427 
L 641.088748 274.287054 
L 642.744183 288.169265 
L 644.399619 287.875886 
L 646.055054 270.650395 
L 647.71049 294.187594 
L 651.02136 298.60999 
L 652.676796 298.095016 
L 654.332231 285.797256 
L 655.987667 297.145772 
L 657.643102 283.493674 
L 659.298538 294.37288 
L 660.953973 302.028243 
L 662.609409 290.436669 
L 664.264844 281.736136 
L 665.92028 298.281569 
L 667.575715 296.938673 
L 669.231151 298.834327 
L 670.886586 304.596477 
L 672.542022 293.572637 
L 674.197457 304.415159 
L 675.852893 290.589712 
L 677.508328 301.712489 
L 679.163764 302.606131 
L 680.819199 294.715719 
L 682.474634 286.04842 
L 684.13007 300.117619 
L 685.785505 308.958452 
L 687.440941 303.453958 
L 689.096376 301.170474 
L 690.751812 294.633496 
L 692.407247 309.8178 
L 694.062683 306.300838 
L 695.718118 305.186548 
L 697.373554 302.170208 
L 699.028989 305.148586 
L 700.684425 299.98554 
L 703.995296 300.338857 
L 705.650731 309.018593 
L 707.306167 306.884615 
L 708.961602 310.549878 
L 710.617038 312.247339 
L 712.272473 307.058804 
L 713.927908 310.145055 
L 715.583344 308.778477 
L 717.238779 306.436061 
L 718.894215 299.180226 
L 720.54965 311.721718 
L 722.205086 314.664959 
L 723.860521 307.128522 
L 725.515957 298.79712 
L 727.171392 308.88149 
L 728.826828 307.37156 
L 730.482263 308.145504 
L 732.137699 304.165517 
L 733.793134 310.496747 
L 735.44857 320.128078 
L 737.104005 319.653098 
L 738.759441 307.847748 
L 740.414876 306.950251 
L 742.070312 316.688495 
L 743.725747 319.049577 
L 745.381182 317.439817 
L 747.036618 313.272936 
L 748.692053 310.479167 
L 750.347489 317.170209 
L 752.002924 312.057395 
L 753.65836 317.082835 
L 755.313795 328.776207 
L 756.969231 317.500392 
L 760.280102 321.044825 
L 761.935537 315.249419 
L 763.590973 317.030081 
L 765.246408 328.240663 
L 766.901844 317.824109 
L 768.557279 323.558463 
L 770.212715 319.542016 
L 771.86815 327.166334 
L 773.523586 324.462672 
L 775.179021 325.017048 
L 776.834456 319.051984 
L 778.489892 327.761014 
L 780.145327 313.506255 
L 781.800763 329.842411 
L 783.456198 309.407275 
L 785.111634 321.126657 
L 786.767069 321.253936 
L 788.422505 321.711665 
L 790.07794 324.800812 
L 791.733376 326.754026 
L 793.388811 329.93179 
L 795.044247 313.076768 
L 796.699682 326.591365 
L 798.355118 317.789422 
L 800.010553 325.789358 
L 801.665989 320.254315 
L 803.321424 321.417079 
L 804.97686 321.128143 
L 806.632295 317.052392 
L 808.28773 319.39076 
L 809.943166 329.618439 
L 811.598601 324.646449 
L 813.254037 324.94153 
L 814.909472 328.065623 
L 816.564908 326.464878 
L 818.220343 322.426316 
L 819.875779 324.747925 
L 821.531214 321.395609 
L 823.18665 329.861148 
L 824.842085 323.658778 
L 826.497521 323.689769 
L 828.152956 327.301907 
L 829.808392 322.994123 
L 831.463827 320.695128 
L 833.119263 329.648506 
L 834.774698 319.010301 
L 836.430134 328.496115 
L 838.085569 330.124325 
L 839.741004 330.622504 
L 841.39644 322.278364 
L 843.051875 324.34862 
L 844.707311 328.643328 
L 846.362746 334.583914 
L 848.018182 330.421427 
L 849.673617 324.904767 
L 851.329053 325.650203 
L 852.984488 329.494247 
L 854.639924 329.806958 
L 856.295359 329.692853 
L 857.950795 333.732532 
L 859.60623 330.505655 
L 861.261666 332.172997 
L 862.917101 328.886016 
L 864.572537 325.000133 
L 866.227972 328.303825 
L 867.883408 332.586121 
L 869.538843 330.285208 
L 871.194278 323.30599 
L 872.849714 330.523041 
L 874.505149 327.567073 
L 876.160585 325.349544 
L 877.81602 327.113593 
L 879.471456 323.713991 
L 881.126891 330.228565 
L 882.782327 335.480635 
L 884.437762 326.940327 
L 886.093198 335.163047 
L 887.748633 330.405304 
L 889.404069 327.475887 
L 891.059504 329.181484 
L 891.059504 329.181484 
" style="fill:none;stroke:#1f77b4;stroke-linecap:square;stroke-width:1.5;"/>
   </g>
   <g id="mpl_toolkits.axisartist.axis_artist_3">
    <g>
     <use style="fill:none;stroke:#000000;stroke-width:0.8;" x="561.627845" xlink:href="#mffa5321a1e" y="378"/>
    </g>
    <g>
     <use style="fill:none;stroke:#000000;stroke-width:0.8;" x="603.013732" xlink:href="#mffa5321a1e" y="378"/>
    </g>
    <g>
     <use style="fill:none;stroke:#000000;stroke-width:0.8;" x="644.399619" xlink:href="#mffa5321a1e" y="378"/>
    </g>
    <g>
     <use style="fill:none;stroke:#000000;stroke-width:0.8;" x="685.785505" xlink:href="#mffa5321a1e" y="378"/>
    </g>
    <g>
     <use style="fill:none;stroke:#000000;stroke-width:0.8;" x="727.171392" xlink:href="#mffa5321a1e" y="378"/>
    </g>
    <g>
     <use style="fill:none;stroke:#000000;stroke-width:0.8;" x="768.557279" xlink:href="#mffa5321a1e" y="378"/>
    </g>
    <g>
     <use style="fill:none;stroke:#000000;stroke-width:0.8;" x="809.943166" xlink:href="#mffa5321a1e" y="378"/>
    </g>
    <g>
     <use style="fill:none;stroke:#000000;stroke-width:0.8;" x="851.329053" xlink:href="#mffa5321a1e" y="378"/>
    </g>
    <g>
     <use style="fill:none;stroke:#000000;stroke-width:0.8;" x="892.71494" xlink:href="#mffa5321a1e" y="378"/>
    </g>
    <g id="text_19">
     <!-- 0 -->
     <g transform="translate(558.446595 388.921875)scale(0.1 -0.1)">
      <use xlink:href="#DejaVuSans-48"/>
     </g>
    </g>
    <g id="text_20">
     <!-- 25 -->
     <g transform="translate(596.651232 388.921875)scale(0.1 -0.1)">
      <use xlink:href="#DejaVuSans-50"/>
      <use x="63.623047" xlink:href="#DejaVuSans-53"/>
     </g>
    </g>
    <g id="text_21">
     <!-- 50 -->
     <g transform="translate(638.037119 388.921875)scale(0.1 -0.1)">
      <use xlink:href="#DejaVuSans-53"/>
      <use x="63.623047" xlink:href="#DejaVuSans-48"/>
     </g>
    </g>
    <g id="text_22">
     <!-- 75 -->
     <g transform="translate(679.423005 388.921875)scale(0.1 -0.1)">
      <use xlink:href="#DejaVuSans-55"/>
      <use x="63.623047" xlink:href="#DejaVuSans-53"/>
     </g>
    </g>
    <g id="text_23">
     <!-- 100 -->
     <g transform="translate(717.627642 388.921875)scale(0.1 -0.1)">
      <use xlink:href="#DejaVuSans-49"/>
      <use x="63.623047" xlink:href="#DejaVuSans-48"/>
      <use x="127.246094" xlink:href="#DejaVuSans-48"/>
     </g>
    </g>
    <g id="text_24">
     <!-- 125 -->
     <g transform="translate(759.013529 388.921875)scale(0.1 -0.1)">
      <use xlink:href="#DejaVuSans-49"/>
      <use x="63.623047" xlink:href="#DejaVuSans-50"/>
      <use x="127.246094" xlink:href="#DejaVuSans-53"/>
     </g>
    </g>
    <g id="text_25">
     <!-- 150 -->
     <g transform="translate(800.399416 388.921875)scale(0.1 -0.1)">
      <use xlink:href="#DejaVuSans-49"/>
      <use x="63.623047" xlink:href="#DejaVuSans-53"/>
      <use x="127.246094" xlink:href="#DejaVuSans-48"/>
     </g>
    </g>
    <g id="text_26">
     <!-- 175 -->
     <g transform="translate(841.785303 388.921875)scale(0.1 -0.1)">
      <use xlink:href="#DejaVuSans-49"/>
      <use x="63.623047" xlink:href="#DejaVuSans-55"/>
      <use x="127.246094" xlink:href="#DejaVuSans-53"/>
     </g>
    </g>
    <g id="text_27">
     <!-- 200 -->
     <g transform="translate(883.17119 388.921875)scale(0.1 -0.1)">
      <use xlink:href="#DejaVuSans-50"/>
      <use x="63.623047" xlink:href="#DejaVuSans-48"/>
      <use x="127.246094" xlink:href="#DejaVuSans-48"/>
     </g>
    </g>
    <g id="patch_6">
     <path d="M 552.109091 378 
L 907.2 378 
L 926.081966 378 
" style="fill:none;stroke:#000000;stroke-linecap:round;"/>
     <path d="M 918.081966 374 
L 926.081966 378 
L 918.081966 382 
L 918.081966 374 
z
" style="fill:#1f77b4;stroke:#000000;stroke-linecap:round;"/>
    </g>
    <g id="text_28">
     <!-- Number of iterations -->
     <g transform="translate(677.843608 401.6625)scale(0.1 -0.1)">
      <use xlink:href="#DejaVuSans-78"/>
      <use x="74.804688" xlink:href="#DejaVuSans-117"/>
      <use x="138.183594" xlink:href="#DejaVuSans-109"/>
      <use x="235.595703" xlink:href="#DejaVuSans-98"/>
      <use x="299.072266" xlink:href="#DejaVuSans-101"/>
      <use x="360.595703" xlink:href="#DejaVuSans-114"/>
      <use x="401.708984" xlink:href="#DejaVuSans-32"/>
      <use x="433.496094" xlink:href="#DejaVuSans-111"/>
      <use x="494.677734" xlink:href="#DejaVuSans-102"/>
      <use x="529.882812" xlink:href="#DejaVuSans-32"/>
      <use x="561.669922" xlink:href="#DejaVuSans-105"/>
      <use x="589.453125" xlink:href="#DejaVuSans-116"/>
      <use x="628.662109" xlink:href="#DejaVuSans-101"/>
      <use x="690.185547" xlink:href="#DejaVuSans-114"/>
      <use x="731.298828" xlink:href="#DejaVuSans-97"/>
      <use x="792.578125" xlink:href="#DejaVuSans-116"/>
      <use x="831.787109" xlink:href="#DejaVuSans-105"/>
      <use x="859.570312" xlink:href="#DejaVuSans-111"/>
      <use x="920.751953" xlink:href="#DejaVuSans-110"/>
      <use x="984.130859" xlink:href="#DejaVuSans-115"/>
     </g>
    </g>
   </g>
   <g id="mpl_toolkits.axisartist.axis_artist_4">
    <g>
     <use style="fill:none;stroke:#000000;stroke-width:0.8;" x="561.627845" xlink:href="#m9cadcb4d2b" y="378"/>
    </g>
    <g>
     <use style="fill:none;stroke:#000000;stroke-width:0.8;" x="561.627845" xlink:href="#m9cadcb4d2b" y="312.768"/>
    </g>
    <g>
     <use style="fill:none;stroke:#000000;stroke-width:0.8;" x="561.627845" xlink:href="#m9cadcb4d2b" y="247.536"/>
    </g>
    <g>
     <use style="fill:none;stroke:#000000;stroke-width:0.8;" x="561.627845" xlink:href="#m9cadcb4d2b" y="182.304"/>
    </g>
    <g>
     <use style="fill:none;stroke:#000000;stroke-width:0.8;" x="561.627845" xlink:href="#m9cadcb4d2b" y="117.072"/>
    </g>
    <g>
     <use style="fill:none;stroke:#000000;stroke-width:0.8;" x="561.627845" xlink:href="#m9cadcb4d2b" y="51.84"/>
    </g>
    <g id="text_29">
     <!-- 0 -->
     <g transform="translate(551.765345 380.759375)scale(0.1 -0.1)">
      <use xlink:href="#DejaVuSans-48"/>
     </g>
    </g>
    <g id="text_30">
     <!-- 1 -->
     <g transform="translate(551.765345 315.527375)scale(0.1 -0.1)">
      <use xlink:href="#DejaVuSans-49"/>
     </g>
    </g>
    <g id="text_31">
     <!-- 2 -->
     <g transform="translate(551.765345 250.295375)scale(0.1 -0.1)">
      <use xlink:href="#DejaVuSans-50"/>
     </g>
    </g>
    <g id="text_32">
     <!-- 3 -->
     <g transform="translate(551.765345 185.063375)scale(0.1 -0.1)">
      <use xlink:href="#DejaVuSans-51"/>
     </g>
    </g>
    <g id="text_33">
     <!-- 4 -->
     <g transform="translate(551.765345 119.831375)scale(0.1 -0.1)">
      <use xlink:href="#DejaVuSans-52"/>
     </g>
    </g>
    <g id="text_34">
     <!-- 5 -->
     <g transform="translate(551.765345 54.599375)scale(0.1 -0.1)">
      <use xlink:href="#DejaVuSans-53"/>
     </g>
    </g>
    <g id="patch_7">
     <path d="M 561.627845 378 
L 561.627845 51.84 
L 561.627845 32.958034 
" style="fill:none;stroke:#000000;stroke-linecap:round;"/>
     <path d="M 557.627845 40.958034 
L 561.627845 32.958034 
L 565.627845 40.958034 
L 557.627845 40.958034 
z
" style="fill:#1f77b4;stroke:#000000;stroke-linecap:round;"/>
    </g>
    <g id="text_35">
     <!-- cost -->
     <g transform="translate(544.685657 225.293437)rotate(-90)scale(0.1 -0.1)">
      <use xlink:href="#DejaVuSans-99"/>
      <use x="54.980469" xlink:href="#DejaVuSans-111"/>
      <use x="116.162109" xlink:href="#DejaVuSans-115"/>
      <use x="168.261719" xlink:href="#DejaVuSans-116"/>
     </g>
    </g>
   </g>
   <g id="text_36">
    <!-- Mini-batch gradient descent -->
    <g transform="translate(645.376108 45.84)scale(0.12 -0.12)">
     <defs>
      <path d="M 9.8125 72.90625 
L 24.515625 72.90625 
L 43.109375 23.296875 
L 61.8125 72.90625 
L 76.515625 72.90625 
L 76.515625 0 
L 66.890625 0 
L 66.890625 64.015625 
L 48.09375 14.015625 
L 38.1875 14.015625 
L 19.390625 64.015625 
L 19.390625 0 
L 9.8125 0 
z
" id="DejaVuSans-77"/>
      <path d="M 4.890625 31.390625 
L 31.203125 31.390625 
L 31.203125 23.390625 
L 4.890625 23.390625 
z
" id="DejaVuSans-45"/>
     </defs>
     <use xlink:href="#DejaVuSans-77"/>
     <use x="86.279297" xlink:href="#DejaVuSans-105"/>
     <use x="114.0625" xlink:href="#DejaVuSans-110"/>
     <use x="177.441406" xlink:href="#DejaVuSans-105"/>
     <use x="205.224609" xlink:href="#DejaVuSans-45"/>
     <use x="241.308594" xlink:href="#DejaVuSans-98"/>
     <use x="304.785156" xlink:href="#DejaVuSans-97"/>
     <use x="366.064453" xlink:href="#DejaVuSans-116"/>
     <use x="405.273438" xlink:href="#DejaVuSans-99"/>
     <use x="460.253906" xlink:href="#DejaVuSans-104"/>
     <use x="523.632812" xlink:href="#DejaVuSans-32"/>
     <use x="555.419922" xlink:href="#DejaVuSans-103"/>
     <use x="618.896484" xlink:href="#DejaVuSans-114"/>
     <use x="660.009766" xlink:href="#DejaVuSans-97"/>
     <use x="721.289062" xlink:href="#DejaVuSans-100"/>
     <use x="784.765625" xlink:href="#DejaVuSans-105"/>
     <use x="812.548828" xlink:href="#DejaVuSans-101"/>
     <use x="874.072266" xlink:href="#DejaVuSans-110"/>
     <use x="937.451172" xlink:href="#DejaVuSans-116"/>
     <use x="976.660156" xlink:href="#DejaVuSans-32"/>
     <use x="1008.447266" xlink:href="#DejaVuSans-100"/>
     <use x="1071.923828" xlink:href="#DejaVuSans-101"/>
     <use x="1133.447266" xlink:href="#DejaVuSans-115"/>
     <use x="1185.546875" xlink:href="#DejaVuSans-99"/>
     <use x="1240.527344" xlink:href="#DejaVuSans-101"/>
     <use x="1302.050781" xlink:href="#DejaVuSans-110"/>
     <use x="1365.429688" xlink:href="#DejaVuSans-116"/>
    </g>
   </g>
  </g>
 </g>
 <defs>
  <clipPath id="pcb430fcd53">
   <rect height="326.16" width="355.090909" x="126" y="51.84"/>
  </clipPath>
  <clipPath id="p268e06d7ee">
   <rect height="326.16" width="355.090909" x="552.109091" y="51.84"/>
  </clipPath>
 </defs>
</svg>
