<?xml version="1.0" encoding="utf-8" standalone="no"?>
<!DOCTYPE svg PUBLIC "-//W3C//DTD SVG 1.1//EN"
  "http://www.w3.org/Graphics/SVG/1.1/DTD/svg11.dtd">
<!-- Created with matplotlib (https://matplotlib.org/) -->
<svg height="432pt" version="1.1" viewBox="0 0 720 432" width="720pt" xmlns="http://www.w3.org/2000/svg" xmlns:xlink="http://www.w3.org/1999/xlink">
 <metadata>
  <rdf:RDF xmlns:cc="http://creativecommons.org/ns#" xmlns:dc="http://purl.org/dc/elements/1.1/" xmlns:rdf="http://www.w3.org/1999/02/22-rdf-syntax-ns#">
   <cc:Work>
    <dc:type rdf:resource="http://purl.org/dc/dcmitype/StillImage"/>
    <dc:date>2021-09-26T10:19:50.377866</dc:date>
    <dc:format>image/svg+xml</dc:format>
    <dc:creator>
     <cc:Agent>
      <dc:title>Matplotlib v3.3.4, https://matplotlib.org/</dc:title>
     </cc:Agent>
    </dc:creator>
   </cc:Work>
  </rdf:RDF>
 </metadata>
 <defs>
  <style type="text/css">*{stroke-linecap:butt;stroke-linejoin:round;}</style>
 </defs>
 <g id="figure_1">
  <g id="patch_1">
   <path d="M 0 432 
L 720 432 
L 720 0 
L 0 0 
z
" style="fill:none;"/>
  </g>
  <g id="axes_1">
   <g id="patch_2">
    <path d="M 90 378 
L 648 378 
L 648 51.84 
L 90 51.84 
z
" style="fill:none;"/>
   </g>
   <g id="line2d_1">
    <path clip-path="url(#p084ff59c91)" d="M 90 66.665455 
L 648 66.665455 
" style="fill:none;stroke:#008000;stroke-dasharray:5.55,2.4;stroke-dashoffset:0;stroke-width:1.5;"/>
   </g>
   <g id="line2d_2">
    <path clip-path="url(#p084ff59c91)" d="M 115.363636 363.174545 
L 176.542257 363.039686 
L 202.033349 362.785175 
L 217.328004 362.454818 
L 230.07355 361.981119 
L 240.269986 361.391139 
L 247.917314 360.767621 
L 255.564641 359.930131 
L 263.211969 358.807173 
L 268.310187 357.85469 
L 273.408406 356.699717 
L 278.506624 355.301399 
L 283.604842 353.611673 
L 288.703061 351.574487 
L 293.801279 349.125166 
L 296.350388 347.723299 
L 298.899497 346.190096 
L 301.448607 344.514987 
L 303.997716 342.686906 
L 306.546825 340.694346 
L 309.095934 338.525427 
L 311.645043 336.167994 
L 314.194153 333.609737 
L 316.743262 330.838339 
L 319.292371 327.841652 
L 321.84148 324.60791 
L 324.390589 321.125967 
L 326.939698 317.385572 
L 329.488808 313.37767 
L 332.037917 309.094725 
L 334.587026 304.531069 
L 337.136135 299.683249 
L 339.685244 294.550385 
L 342.234354 289.134496 
L 347.332572 277.478016 
L 352.43079 264.798198 
L 357.529009 251.238684 
L 362.627227 237.000616 
L 372.823664 207.519838 
L 380.470991 185.663614 
L 385.56921 171.736351 
L 390.667428 158.595013 
L 395.765646 146.412651 
L 398.314756 140.718965 
L 400.863865 135.303077 
L 403.412974 130.170212 
L 405.962083 125.322393 
L 408.511192 120.758736 
L 411.060302 116.475792 
L 413.609411 112.467889 
L 416.15852 108.727494 
L 418.707629 105.245551 
L 421.256738 102.011809 
L 423.805847 99.015122 
L 426.354957 96.243724 
L 428.904066 93.685468 
L 431.453175 91.328035 
L 434.002284 89.159116 
L 436.551393 87.166555 
L 439.100503 85.338475 
L 441.649612 83.663365 
L 444.198721 82.130162 
L 449.296939 79.447728 
L 454.395158 77.213114 
L 459.493376 75.357192 
L 464.591594 73.819661 
L 469.689813 72.548553 
L 474.788031 71.499513 
L 479.886249 70.634978 
L 487.533577 69.616388 
L 495.180905 68.857213 
L 505.377341 68.138223 
L 515.573778 67.6543 
L 528.319324 67.266008 
L 546.163088 66.963985 
L 571.65418 66.775348 
L 620.087254 66.681896 
L 622.636364 66.680332 
L 622.636364 66.680332 
" style="fill:none;stroke:#1f77b4;stroke-linecap:square;stroke-width:1.5;"/>
   </g>
   <g id="mpl_toolkits.axisartist.axis_artist_1">
    <defs>
     <path d="M 0 0 
L -0 3.5 
" id="m0cfd95b617" style="stroke:#000000;stroke-width:0.8;"/>
    </defs>
    <g>
     <use style="fill:none;stroke:#000000;stroke-width:0.8;" x="115.363636" xlink:href="#m0cfd95b617" y="363.188007"/>
    </g>
    <g>
     <use style="fill:none;stroke:#000000;stroke-width:0.8;" x="179.091366" xlink:href="#m0cfd95b617" y="363.188007"/>
    </g>
    <g>
     <use style="fill:none;stroke:#000000;stroke-width:0.8;" x="242.819095" xlink:href="#m0cfd95b617" y="363.188007"/>
    </g>
    <g>
     <use style="fill:none;stroke:#000000;stroke-width:0.8;" x="306.546825" xlink:href="#m0cfd95b617" y="363.188007"/>
    </g>
    <g>
     <use style="fill:none;stroke:#000000;stroke-width:0.8;" x="370.274555" xlink:href="#m0cfd95b617" y="363.188007"/>
    </g>
    <g>
     <use style="fill:none;stroke:#000000;stroke-width:0.8;" x="434.002284" xlink:href="#m0cfd95b617" y="363.188007"/>
    </g>
    <g>
     <use style="fill:none;stroke:#000000;stroke-width:0.8;" x="497.730014" xlink:href="#m0cfd95b617" y="363.188007"/>
    </g>
    <g>
     <use style="fill:none;stroke:#000000;stroke-width:0.8;" x="561.457743" xlink:href="#m0cfd95b617" y="363.188007"/>
    </g>
    <g>
     <use style="fill:none;stroke:#000000;stroke-width:0.8;" x="625.185473" xlink:href="#m0cfd95b617" y="363.188007"/>
    </g>
    <g id="text_1">
     <!-- −10.0 -->
     <g transform="translate(100.04098 359.545819)scale(0.1 -0.1)">
      <defs>
       <path d="M 10.59375 35.5 
L 73.1875 35.5 
L 73.1875 27.203125 
L 10.59375 27.203125 
z
" id="DejaVuSans-8722"/>
       <path d="M 12.40625 8.296875 
L 28.515625 8.296875 
L 28.515625 63.921875 
L 10.984375 60.40625 
L 10.984375 69.390625 
L 28.421875 72.90625 
L 38.28125 72.90625 
L 38.28125 8.296875 
L 54.390625 8.296875 
L 54.390625 0 
L 12.40625 0 
z
" id="DejaVuSans-49"/>
       <path d="M 31.78125 66.40625 
Q 24.171875 66.40625 20.328125 58.90625 
Q 16.5 51.421875 16.5 36.375 
Q 16.5 21.390625 20.328125 13.890625 
Q 24.171875 6.390625 31.78125 6.390625 
Q 39.453125 6.390625 43.28125 13.890625 
Q 47.125 21.390625 47.125 36.375 
Q 47.125 51.421875 43.28125 58.90625 
Q 39.453125 66.40625 31.78125 66.40625 
z
M 31.78125 74.21875 
Q 44.046875 74.21875 50.515625 64.515625 
Q 56.984375 54.828125 56.984375 36.375 
Q 56.984375 17.96875 50.515625 8.265625 
Q 44.046875 -1.421875 31.78125 -1.421875 
Q 19.53125 -1.421875 13.0625 8.265625 
Q 6.59375 17.96875 6.59375 36.375 
Q 6.59375 54.828125 13.0625 64.515625 
Q 19.53125 74.21875 31.78125 74.21875 
z
" id="DejaVuSans-48"/>
       <path d="M 10.6875 12.40625 
L 21 12.40625 
L 21 0 
L 10.6875 0 
z
" id="DejaVuSans-46"/>
      </defs>
      <use xlink:href="#DejaVuSans-8722"/>
      <use x="83.789062" xlink:href="#DejaVuSans-49"/>
      <use x="147.412109" xlink:href="#DejaVuSans-48"/>
      <use x="211.035156" xlink:href="#DejaVuSans-46"/>
      <use x="242.822266" xlink:href="#DejaVuSans-48"/>
     </g>
    </g>
    <g id="text_2">
     <!-- −7.5 -->
     <g transform="translate(166.94996 359.545819)scale(0.1 -0.1)">
      <defs>
       <path d="M 8.203125 72.90625 
L 55.078125 72.90625 
L 55.078125 68.703125 
L 28.609375 0 
L 18.3125 0 
L 43.21875 64.59375 
L 8.203125 64.59375 
z
" id="DejaVuSans-55"/>
       <path d="M 10.796875 72.90625 
L 49.515625 72.90625 
L 49.515625 64.59375 
L 19.828125 64.59375 
L 19.828125 46.734375 
Q 21.96875 47.46875 24.109375 47.828125 
Q 26.265625 48.1875 28.421875 48.1875 
Q 40.625 48.1875 47.75 41.5 
Q 54.890625 34.8125 54.890625 23.390625 
Q 54.890625 11.625 47.5625 5.09375 
Q 40.234375 -1.421875 26.90625 -1.421875 
Q 22.3125 -1.421875 17.546875 -0.640625 
Q 12.796875 0.140625 7.71875 1.703125 
L 7.71875 11.625 
Q 12.109375 9.234375 16.796875 8.0625 
Q 21.484375 6.890625 26.703125 6.890625 
Q 35.15625 6.890625 40.078125 11.328125 
Q 45.015625 15.765625 45.015625 23.390625 
Q 45.015625 31 40.078125 35.4375 
Q 35.15625 39.890625 26.703125 39.890625 
Q 22.75 39.890625 18.8125 39.015625 
Q 14.890625 38.140625 10.796875 36.28125 
z
" id="DejaVuSans-53"/>
      </defs>
      <use xlink:href="#DejaVuSans-8722"/>
      <use x="83.789062" xlink:href="#DejaVuSans-55"/>
      <use x="147.412109" xlink:href="#DejaVuSans-46"/>
      <use x="179.199219" xlink:href="#DejaVuSans-53"/>
     </g>
    </g>
    <g id="text_3">
     <!-- −5.0 -->
     <g transform="translate(230.677689 359.545819)scale(0.1 -0.1)">
      <use xlink:href="#DejaVuSans-8722"/>
      <use x="83.789062" xlink:href="#DejaVuSans-53"/>
      <use x="147.412109" xlink:href="#DejaVuSans-46"/>
      <use x="179.199219" xlink:href="#DejaVuSans-48"/>
     </g>
    </g>
    <g id="text_4">
     <!-- −2.5 -->
     <g transform="translate(294.405419 359.545819)scale(0.1 -0.1)">
      <defs>
       <path d="M 19.1875 8.296875 
L 53.609375 8.296875 
L 53.609375 0 
L 7.328125 0 
L 7.328125 8.296875 
Q 12.9375 14.109375 22.625 23.890625 
Q 32.328125 33.6875 34.8125 36.53125 
Q 39.546875 41.84375 41.421875 45.53125 
Q 43.3125 49.21875 43.3125 52.78125 
Q 43.3125 58.59375 39.234375 62.25 
Q 35.15625 65.921875 28.609375 65.921875 
Q 23.96875 65.921875 18.8125 64.3125 
Q 13.671875 62.703125 7.8125 59.421875 
L 7.8125 69.390625 
Q 13.765625 71.78125 18.9375 73 
Q 24.125 74.21875 28.421875 74.21875 
Q 39.75 74.21875 46.484375 68.546875 
Q 53.21875 62.890625 53.21875 53.421875 
Q 53.21875 48.921875 51.53125 44.890625 
Q 49.859375 40.875 45.40625 35.40625 
Q 44.1875 33.984375 37.640625 27.21875 
Q 31.109375 20.453125 19.1875 8.296875 
z
" id="DejaVuSans-50"/>
      </defs>
      <use xlink:href="#DejaVuSans-8722"/>
      <use x="83.789062" xlink:href="#DejaVuSans-50"/>
      <use x="147.412109" xlink:href="#DejaVuSans-46"/>
      <use x="179.199219" xlink:href="#DejaVuSans-53"/>
     </g>
    </g>
    <g id="text_5">
     <!-- 0.0 -->
     <g transform="translate(362.322992 359.545819)scale(0.1 -0.1)">
      <use xlink:href="#DejaVuSans-48"/>
      <use x="63.623047" xlink:href="#DejaVuSans-46"/>
      <use x="95.410156" xlink:href="#DejaVuSans-48"/>
     </g>
    </g>
    <g id="text_6">
     <!-- 2.5 -->
     <g transform="translate(426.050722 359.545819)scale(0.1 -0.1)">
      <use xlink:href="#DejaVuSans-50"/>
      <use x="63.623047" xlink:href="#DejaVuSans-46"/>
      <use x="95.410156" xlink:href="#DejaVuSans-53"/>
     </g>
    </g>
    <g id="text_7">
     <!-- 5.0 -->
     <g transform="translate(489.778451 359.545819)scale(0.1 -0.1)">
      <use xlink:href="#DejaVuSans-53"/>
      <use x="63.623047" xlink:href="#DejaVuSans-46"/>
      <use x="95.410156" xlink:href="#DejaVuSans-48"/>
     </g>
    </g>
    <g id="text_8">
     <!-- 7.5 -->
     <g transform="translate(553.506181 359.545819)scale(0.1 -0.1)">
      <use xlink:href="#DejaVuSans-55"/>
      <use x="63.623047" xlink:href="#DejaVuSans-46"/>
      <use x="95.410156" xlink:href="#DejaVuSans-53"/>
     </g>
    </g>
    <g id="text_9">
     <!-- 10.0 -->
     <g transform="translate(614.05266 359.545819)scale(0.1 -0.1)">
      <use xlink:href="#DejaVuSans-49"/>
      <use x="63.623047" xlink:href="#DejaVuSans-48"/>
      <use x="127.246094" xlink:href="#DejaVuSans-46"/>
      <use x="159.033203" xlink:href="#DejaVuSans-48"/>
     </g>
    </g>
    <g id="patch_3">
     <path d="M 90 363.188007 
L 648 363.188007 
L 666.881966 363.188007 
" style="fill:none;stroke:#000000;stroke-linecap:round;"/>
     <path d="M 658.881966 359.188007 
L 666.881966 363.188007 
L 658.881966 367.188007 
L 658.881966 359.188007 
z
" style="fill:#1f77b4;stroke:#000000;stroke-linecap:round;"/>
    </g>
   </g>
   <g id="mpl_toolkits.axisartist.axis_artist_2">
    <defs>
     <path d="M 0 0 
L -3.5 -0 
" id="mc4ef73d5c3" style="stroke:#000000;stroke-width:0.8;"/>
    </defs>
    <g>
     <use style="fill:none;stroke:#000000;stroke-width:0.8;" x="370.274555" xlink:href="#mc4ef73d5c3" y="363.188007"/>
    </g>
    <g>
     <use style="fill:none;stroke:#000000;stroke-width:0.8;" x="370.274555" xlink:href="#mc4ef73d5c3" y="303.883496"/>
    </g>
    <g>
     <use style="fill:none;stroke:#000000;stroke-width:0.8;" x="370.274555" xlink:href="#mc4ef73d5c3" y="244.578986"/>
    </g>
    <g>
     <use style="fill:none;stroke:#000000;stroke-width:0.8;" x="370.274555" xlink:href="#mc4ef73d5c3" y="185.274476"/>
    </g>
    <g>
     <use style="fill:none;stroke:#000000;stroke-width:0.8;" x="370.274555" xlink:href="#mc4ef73d5c3" y="125.969965"/>
    </g>
    <g>
     <use style="fill:none;stroke:#000000;stroke-width:0.8;" x="370.274555" xlink:href="#mc4ef73d5c3" y="66.665455"/>
    </g>
    <g id="text_10">
     <!-- 0.0 -->
     <g transform="translate(373.774555 365.947382)scale(0.1 -0.1)">
      <use xlink:href="#DejaVuSans-48"/>
      <use x="63.623047" xlink:href="#DejaVuSans-46"/>
      <use x="95.410156" xlink:href="#DejaVuSans-48"/>
     </g>
    </g>
    <g id="text_11">
     <!-- 0.2 -->
     <g transform="translate(373.774555 306.642871)scale(0.1 -0.1)">
      <use xlink:href="#DejaVuSans-48"/>
      <use x="63.623047" xlink:href="#DejaVuSans-46"/>
      <use x="95.410156" xlink:href="#DejaVuSans-50"/>
     </g>
    </g>
    <g id="text_12">
     <!-- 0.4 -->
     <g transform="translate(373.774555 247.338361)scale(0.1 -0.1)">
      <defs>
       <path d="M 37.796875 64.3125 
L 12.890625 25.390625 
L 37.796875 25.390625 
z
M 35.203125 72.90625 
L 47.609375 72.90625 
L 47.609375 25.390625 
L 58.015625 25.390625 
L 58.015625 17.1875 
L 47.609375 17.1875 
L 47.609375 0 
L 37.796875 0 
L 37.796875 17.1875 
L 4.890625 17.1875 
L 4.890625 26.703125 
z
" id="DejaVuSans-52"/>
      </defs>
      <use xlink:href="#DejaVuSans-48"/>
      <use x="63.623047" xlink:href="#DejaVuSans-46"/>
      <use x="95.410156" xlink:href="#DejaVuSans-52"/>
     </g>
    </g>
    <g id="text_13">
     <!-- 0.6 -->
     <g transform="translate(373.774555 188.033851)scale(0.1 -0.1)">
      <defs>
       <path d="M 33.015625 40.375 
Q 26.375 40.375 22.484375 35.828125 
Q 18.609375 31.296875 18.609375 23.390625 
Q 18.609375 15.53125 22.484375 10.953125 
Q 26.375 6.390625 33.015625 6.390625 
Q 39.65625 6.390625 43.53125 10.953125 
Q 47.40625 15.53125 47.40625 23.390625 
Q 47.40625 31.296875 43.53125 35.828125 
Q 39.65625 40.375 33.015625 40.375 
z
M 52.59375 71.296875 
L 52.59375 62.3125 
Q 48.875 64.0625 45.09375 64.984375 
Q 41.3125 65.921875 37.59375 65.921875 
Q 27.828125 65.921875 22.671875 59.328125 
Q 17.53125 52.734375 16.796875 39.40625 
Q 19.671875 43.65625 24.015625 45.921875 
Q 28.375 48.1875 33.59375 48.1875 
Q 44.578125 48.1875 50.953125 41.515625 
Q 57.328125 34.859375 57.328125 23.390625 
Q 57.328125 12.15625 50.6875 5.359375 
Q 44.046875 -1.421875 33.015625 -1.421875 
Q 20.359375 -1.421875 13.671875 8.265625 
Q 6.984375 17.96875 6.984375 36.375 
Q 6.984375 53.65625 15.1875 63.9375 
Q 23.390625 74.21875 37.203125 74.21875 
Q 40.921875 74.21875 44.703125 73.484375 
Q 48.484375 72.75 52.59375 71.296875 
z
" id="DejaVuSans-54"/>
      </defs>
      <use xlink:href="#DejaVuSans-48"/>
      <use x="63.623047" xlink:href="#DejaVuSans-46"/>
      <use x="95.410156" xlink:href="#DejaVuSans-54"/>
     </g>
    </g>
    <g id="text_14">
     <!-- 0.8 -->
     <g transform="translate(373.774555 128.72934)scale(0.1 -0.1)">
      <defs>
       <path d="M 31.78125 34.625 
Q 24.75 34.625 20.71875 30.859375 
Q 16.703125 27.09375 16.703125 20.515625 
Q 16.703125 13.921875 20.71875 10.15625 
Q 24.75 6.390625 31.78125 6.390625 
Q 38.8125 6.390625 42.859375 10.171875 
Q 46.921875 13.96875 46.921875 20.515625 
Q 46.921875 27.09375 42.890625 30.859375 
Q 38.875 34.625 31.78125 34.625 
z
M 21.921875 38.8125 
Q 15.578125 40.375 12.03125 44.71875 
Q 8.5 49.078125 8.5 55.328125 
Q 8.5 64.0625 14.71875 69.140625 
Q 20.953125 74.21875 31.78125 74.21875 
Q 42.671875 74.21875 48.875 69.140625 
Q 55.078125 64.0625 55.078125 55.328125 
Q 55.078125 49.078125 51.53125 44.71875 
Q 48 40.375 41.703125 38.8125 
Q 48.828125 37.15625 52.796875 32.3125 
Q 56.78125 27.484375 56.78125 20.515625 
Q 56.78125 9.90625 50.3125 4.234375 
Q 43.84375 -1.421875 31.78125 -1.421875 
Q 19.734375 -1.421875 13.25 4.234375 
Q 6.78125 9.90625 6.78125 20.515625 
Q 6.78125 27.484375 10.78125 32.3125 
Q 14.796875 37.15625 21.921875 38.8125 
z
M 18.3125 54.390625 
Q 18.3125 48.734375 21.84375 45.5625 
Q 25.390625 42.390625 31.78125 42.390625 
Q 38.140625 42.390625 41.71875 45.5625 
Q 45.3125 48.734375 45.3125 54.390625 
Q 45.3125 60.0625 41.71875 63.234375 
Q 38.140625 66.40625 31.78125 66.40625 
Q 25.390625 66.40625 21.84375 63.234375 
Q 18.3125 60.0625 18.3125 54.390625 
z
" id="DejaVuSans-56"/>
      </defs>
      <use xlink:href="#DejaVuSans-48"/>
      <use x="63.623047" xlink:href="#DejaVuSans-46"/>
      <use x="95.410156" xlink:href="#DejaVuSans-56"/>
     </g>
    </g>
    <g id="text_15">
     <!-- 1.0 -->
     <g transform="translate(373.774555 69.42483)scale(0.1 -0.1)">
      <use xlink:href="#DejaVuSans-49"/>
      <use x="63.623047" xlink:href="#DejaVuSans-46"/>
      <use x="95.410156" xlink:href="#DejaVuSans-48"/>
     </g>
    </g>
    <g id="patch_4">
     <path d="M 370.274555 378 
L 370.274555 51.84 
L 370.274555 32.958034 
" style="fill:none;stroke:#000000;stroke-linecap:round;"/>
     <path d="M 366.274555 40.958034 
L 370.274555 32.958034 
L 374.274555 40.958034 
L 366.274555 40.958034 
z
" style="fill:#1f77b4;stroke:#000000;stroke-linecap:round;"/>
    </g>
   </g>
  </g>
 </g>
 <defs>
  <clipPath id="p084ff59c91">
   <rect height="326.16" width="558" x="90" y="51.84"/>
  </clipPath>
 </defs>
</svg>
