<?xml version="1.0" encoding="utf-8" standalone="no"?>
<!DOCTYPE svg PUBLIC "-//W3C//DTD SVG 1.1//EN"
  "http://www.w3.org/Graphics/SVG/1.1/DTD/svg11.dtd">
<!-- Created with matplotlib (https://matplotlib.org/) -->
<svg height="432pt" version="1.1" viewBox="0 0 720 432" width="720pt" xmlns="http://www.w3.org/2000/svg" xmlns:xlink="http://www.w3.org/1999/xlink">
 <metadata>
  <rdf:RDF xmlns:cc="http://creativecommons.org/ns#" xmlns:dc="http://purl.org/dc/elements/1.1/" xmlns:rdf="http://www.w3.org/1999/02/22-rdf-syntax-ns#">
   <cc:Work>
    <dc:type rdf:resource="http://purl.org/dc/dcmitype/StillImage"/>
    <dc:date>2021-09-26T10:19:37.104352</dc:date>
    <dc:format>image/svg+xml</dc:format>
    <dc:creator>
     <cc:Agent>
      <dc:title>Matplotlib v3.3.4, https://matplotlib.org/</dc:title>
     </cc:Agent>
    </dc:creator>
   </cc:Work>
  </rdf:RDF>
 </metadata>
 <defs>
  <style type="text/css">*{stroke-linecap:butt;stroke-linejoin:round;}</style>
 </defs>
 <g id="figure_1">
  <g id="patch_1">
   <path d="M 0 432 
L 720 432 
L 720 0 
L 0 0 
z
" style="fill:none;"/>
  </g>
  <g id="axes_1">
   <g id="patch_2">
    <path d="M 90 378 
L 648 378 
L 648 51.84 
L 90 51.84 
z
" style="fill:none;"/>
   </g>
   <g id="line2d_1">
    <path clip-path="url(#p61f50a5ad5)" d="M 90 363.174545 
L 648 363.174545 
" style="fill:none;stroke:#008000;stroke-dasharray:5.55,2.4;stroke-dashoffset:0;stroke-width:1.5;"/>
   </g>
   <g id="line2d_2">
    <path clip-path="url(#p61f50a5ad5)" d="M 90 66.665455 
L 648 66.665455 
" style="fill:none;stroke:#008000;stroke-dasharray:5.55,2.4;stroke-dashoffset:0;stroke-width:1.5;"/>
   </g>
   <g id="line2d_3">
    <path clip-path="url(#p61f50a5ad5)" d="M 115.363636 363.174545 
L 268.310187 363.075111 
L 283.604842 362.844668 
L 291.25217 362.57402 
L 298.899497 362.082135 
L 303.997716 361.547808 
L 309.095934 360.754269 
L 311.645043 360.223746 
L 314.194153 359.578354 
L 316.743262 358.793911 
L 319.292371 357.841471 
L 321.84148 356.68655 
L 324.390589 355.288295 
L 326.939698 353.598647 
L 329.488808 351.561553 
L 332.037917 349.112343 
L 334.587026 346.177406 
L 337.136135 342.674375 
L 339.685244 338.513085 
L 342.234354 333.597619 
L 344.783463 327.829795 
L 347.332572 321.114415 
L 349.881681 313.36647 
L 352.43079 304.52027 
L 354.979899 294.540039 
L 357.529009 283.430969 
L 360.078118 271.249161 
L 362.627227 258.108419 
L 367.725445 229.696233 
L 375.372773 185.658212 
L 377.921882 171.731581 
L 380.470991 158.590839 
L 383.020101 146.409031 
L 385.56921 135.299961 
L 388.118319 125.31973 
L 390.667428 116.47353 
L 393.216537 108.725585 
L 395.765646 102.010205 
L 398.314756 96.242381 
L 400.863865 91.326915 
L 403.412974 87.165625 
L 405.962083 83.662594 
L 408.511192 80.727657 
L 411.060302 78.278447 
L 413.609411 76.241353 
L 416.15852 74.551705 
L 418.707629 73.15345 
L 421.256738 71.998529 
L 423.805847 71.046089 
L 426.354957 70.261646 
L 428.904066 69.616254 
L 434.002284 68.649946 
L 439.100503 67.99864 
L 444.198721 67.560442 
L 451.846048 67.157304 
L 462.042485 66.886659 
L 477.33714 66.732115 
L 513.024669 66.669509 
L 622.636364 66.665455 
L 622.636364 66.665455 
" style="fill:none;stroke:#1f77b4;stroke-linecap:square;stroke-width:1.5;"/>
   </g>
   <g id="mpl_toolkits.axisartist.axis_artist_1">
    <defs>
     <path d="M 0 0 
L -0 3.5 
" id="m9f4bce40fe" style="stroke:#000000;stroke-width:0.8;"/>
    </defs>
    <g>
     <use style="fill:none;stroke:#000000;stroke-width:0.8;" x="115.363636" xlink:href="#m9f4bce40fe" y="214.92"/>
    </g>
    <g>
     <use style="fill:none;stroke:#000000;stroke-width:0.8;" x="179.091366" xlink:href="#m9f4bce40fe" y="214.92"/>
    </g>
    <g>
     <use style="fill:none;stroke:#000000;stroke-width:0.8;" x="242.819095" xlink:href="#m9f4bce40fe" y="214.92"/>
    </g>
    <g>
     <use style="fill:none;stroke:#000000;stroke-width:0.8;" x="306.546825" xlink:href="#m9f4bce40fe" y="214.92"/>
    </g>
    <g>
     <use style="fill:none;stroke:#000000;stroke-width:0.8;" x="370.274555" xlink:href="#m9f4bce40fe" y="214.92"/>
    </g>
    <g>
     <use style="fill:none;stroke:#000000;stroke-width:0.8;" x="434.002284" xlink:href="#m9f4bce40fe" y="214.92"/>
    </g>
    <g>
     <use style="fill:none;stroke:#000000;stroke-width:0.8;" x="497.730014" xlink:href="#m9f4bce40fe" y="214.92"/>
    </g>
    <g>
     <use style="fill:none;stroke:#000000;stroke-width:0.8;" x="561.457743" xlink:href="#m9f4bce40fe" y="214.92"/>
    </g>
    <g>
     <use style="fill:none;stroke:#000000;stroke-width:0.8;" x="625.185473" xlink:href="#m9f4bce40fe" y="214.92"/>
    </g>
    <g id="text_1">
     <!-- −10.0 -->
     <g transform="translate(100.04098 211.277813)scale(0.1 -0.1)">
      <defs>
       <path d="M 10.59375 35.5 
L 73.1875 35.5 
L 73.1875 27.203125 
L 10.59375 27.203125 
z
" id="DejaVuSans-8722"/>
       <path d="M 12.40625 8.296875 
L 28.515625 8.296875 
L 28.515625 63.921875 
L 10.984375 60.40625 
L 10.984375 69.390625 
L 28.421875 72.90625 
L 38.28125 72.90625 
L 38.28125 8.296875 
L 54.390625 8.296875 
L 54.390625 0 
L 12.40625 0 
z
" id="DejaVuSans-49"/>
       <path d="M 31.78125 66.40625 
Q 24.171875 66.40625 20.328125 58.90625 
Q 16.5 51.421875 16.5 36.375 
Q 16.5 21.390625 20.328125 13.890625 
Q 24.171875 6.390625 31.78125 6.390625 
Q 39.453125 6.390625 43.28125 13.890625 
Q 47.125 21.390625 47.125 36.375 
Q 47.125 51.421875 43.28125 58.90625 
Q 39.453125 66.40625 31.78125 66.40625 
z
M 31.78125 74.21875 
Q 44.046875 74.21875 50.515625 64.515625 
Q 56.984375 54.828125 56.984375 36.375 
Q 56.984375 17.96875 50.515625 8.265625 
Q 44.046875 -1.421875 31.78125 -1.421875 
Q 19.53125 -1.421875 13.0625 8.265625 
Q 6.59375 17.96875 6.59375 36.375 
Q 6.59375 54.828125 13.0625 64.515625 
Q 19.53125 74.21875 31.78125 74.21875 
z
" id="DejaVuSans-48"/>
       <path d="M 10.6875 12.40625 
L 21 12.40625 
L 21 0 
L 10.6875 0 
z
" id="DejaVuSans-46"/>
      </defs>
      <use xlink:href="#DejaVuSans-8722"/>
      <use x="83.789062" xlink:href="#DejaVuSans-49"/>
      <use x="147.412109" xlink:href="#DejaVuSans-48"/>
      <use x="211.035156" xlink:href="#DejaVuSans-46"/>
      <use x="242.822266" xlink:href="#DejaVuSans-48"/>
     </g>
    </g>
    <g id="text_2">
     <!-- −7.5 -->
     <g transform="translate(166.94996 211.277813)scale(0.1 -0.1)">
      <defs>
       <path d="M 8.203125 72.90625 
L 55.078125 72.90625 
L 55.078125 68.703125 
L 28.609375 0 
L 18.3125 0 
L 43.21875 64.59375 
L 8.203125 64.59375 
z
" id="DejaVuSans-55"/>
       <path d="M 10.796875 72.90625 
L 49.515625 72.90625 
L 49.515625 64.59375 
L 19.828125 64.59375 
L 19.828125 46.734375 
Q 21.96875 47.46875 24.109375 47.828125 
Q 26.265625 48.1875 28.421875 48.1875 
Q 40.625 48.1875 47.75 41.5 
Q 54.890625 34.8125 54.890625 23.390625 
Q 54.890625 11.625 47.5625 5.09375 
Q 40.234375 -1.421875 26.90625 -1.421875 
Q 22.3125 -1.421875 17.546875 -0.640625 
Q 12.796875 0.140625 7.71875 1.703125 
L 7.71875 11.625 
Q 12.109375 9.234375 16.796875 8.0625 
Q 21.484375 6.890625 26.703125 6.890625 
Q 35.15625 6.890625 40.078125 11.328125 
Q 45.015625 15.765625 45.015625 23.390625 
Q 45.015625 31 40.078125 35.4375 
Q 35.15625 39.890625 26.703125 39.890625 
Q 22.75 39.890625 18.8125 39.015625 
Q 14.890625 38.140625 10.796875 36.28125 
z
" id="DejaVuSans-53"/>
      </defs>
      <use xlink:href="#DejaVuSans-8722"/>
      <use x="83.789062" xlink:href="#DejaVuSans-55"/>
      <use x="147.412109" xlink:href="#DejaVuSans-46"/>
      <use x="179.199219" xlink:href="#DejaVuSans-53"/>
     </g>
    </g>
    <g id="text_3">
     <!-- −5.0 -->
     <g transform="translate(230.677689 211.277813)scale(0.1 -0.1)">
      <use xlink:href="#DejaVuSans-8722"/>
      <use x="83.789062" xlink:href="#DejaVuSans-53"/>
      <use x="147.412109" xlink:href="#DejaVuSans-46"/>
      <use x="179.199219" xlink:href="#DejaVuSans-48"/>
     </g>
    </g>
    <g id="text_4">
     <!-- −2.5 -->
     <g transform="translate(294.405419 211.277813)scale(0.1 -0.1)">
      <defs>
       <path d="M 19.1875 8.296875 
L 53.609375 8.296875 
L 53.609375 0 
L 7.328125 0 
L 7.328125 8.296875 
Q 12.9375 14.109375 22.625 23.890625 
Q 32.328125 33.6875 34.8125 36.53125 
Q 39.546875 41.84375 41.421875 45.53125 
Q 43.3125 49.21875 43.3125 52.78125 
Q 43.3125 58.59375 39.234375 62.25 
Q 35.15625 65.921875 28.609375 65.921875 
Q 23.96875 65.921875 18.8125 64.3125 
Q 13.671875 62.703125 7.8125 59.421875 
L 7.8125 69.390625 
Q 13.765625 71.78125 18.9375 73 
Q 24.125 74.21875 28.421875 74.21875 
Q 39.75 74.21875 46.484375 68.546875 
Q 53.21875 62.890625 53.21875 53.421875 
Q 53.21875 48.921875 51.53125 44.890625 
Q 49.859375 40.875 45.40625 35.40625 
Q 44.1875 33.984375 37.640625 27.21875 
Q 31.109375 20.453125 19.1875 8.296875 
z
" id="DejaVuSans-50"/>
      </defs>
      <use xlink:href="#DejaVuSans-8722"/>
      <use x="83.789062" xlink:href="#DejaVuSans-50"/>
      <use x="147.412109" xlink:href="#DejaVuSans-46"/>
      <use x="179.199219" xlink:href="#DejaVuSans-53"/>
     </g>
    </g>
    <g id="text_5">
     <!-- 0.0 -->
     <g transform="translate(362.322992 211.277813)scale(0.1 -0.1)">
      <use xlink:href="#DejaVuSans-48"/>
      <use x="63.623047" xlink:href="#DejaVuSans-46"/>
      <use x="95.410156" xlink:href="#DejaVuSans-48"/>
     </g>
    </g>
    <g id="text_6">
     <!-- 2.5 -->
     <g transform="translate(426.050722 211.277813)scale(0.1 -0.1)">
      <use xlink:href="#DejaVuSans-50"/>
      <use x="63.623047" xlink:href="#DejaVuSans-46"/>
      <use x="95.410156" xlink:href="#DejaVuSans-53"/>
     </g>
    </g>
    <g id="text_7">
     <!-- 5.0 -->
     <g transform="translate(489.778451 211.277813)scale(0.1 -0.1)">
      <use xlink:href="#DejaVuSans-53"/>
      <use x="63.623047" xlink:href="#DejaVuSans-46"/>
      <use x="95.410156" xlink:href="#DejaVuSans-48"/>
     </g>
    </g>
    <g id="text_8">
     <!-- 7.5 -->
     <g transform="translate(553.506181 211.277813)scale(0.1 -0.1)">
      <use xlink:href="#DejaVuSans-55"/>
      <use x="63.623047" xlink:href="#DejaVuSans-46"/>
      <use x="95.410156" xlink:href="#DejaVuSans-53"/>
     </g>
    </g>
    <g id="text_9">
     <!-- 10.0 -->
     <g transform="translate(614.05266 211.277813)scale(0.1 -0.1)">
      <use xlink:href="#DejaVuSans-49"/>
      <use x="63.623047" xlink:href="#DejaVuSans-48"/>
      <use x="127.246094" xlink:href="#DejaVuSans-46"/>
      <use x="159.033203" xlink:href="#DejaVuSans-48"/>
     </g>
    </g>
    <g id="patch_3">
     <path d="M 90 214.92 
L 648 214.92 
L 666.881966 214.92 
" style="fill:none;stroke:#000000;stroke-linecap:round;"/>
     <path d="M 658.881966 210.92 
L 666.881966 214.92 
L 658.881966 218.92 
L 658.881966 210.92 
z
" style="fill:#1f77b4;stroke:#000000;stroke-linecap:round;"/>
    </g>
   </g>
   <g id="mpl_toolkits.axisartist.axis_artist_2">
    <defs>
     <path d="M 0 0 
L -3.5 -0 
" id="m6176931cfc" style="stroke:#000000;stroke-width:0.8;"/>
    </defs>
    <g>
     <use style="fill:none;stroke:#000000;stroke-width:0.8;" x="370.274555" xlink:href="#m6176931cfc" y="363.174545"/>
    </g>
    <g>
     <use style="fill:none;stroke:#000000;stroke-width:0.8;" x="370.274555" xlink:href="#m6176931cfc" y="326.110909"/>
    </g>
    <g>
     <use style="fill:none;stroke:#000000;stroke-width:0.8;" x="370.274555" xlink:href="#m6176931cfc" y="289.047273"/>
    </g>
    <g>
     <use style="fill:none;stroke:#000000;stroke-width:0.8;" x="370.274555" xlink:href="#m6176931cfc" y="251.983636"/>
    </g>
    <g>
     <use style="fill:none;stroke:#000000;stroke-width:0.8;" x="370.274555" xlink:href="#m6176931cfc" y="214.92"/>
    </g>
    <g>
     <use style="fill:none;stroke:#000000;stroke-width:0.8;" x="370.274555" xlink:href="#m6176931cfc" y="177.856364"/>
    </g>
    <g>
     <use style="fill:none;stroke:#000000;stroke-width:0.8;" x="370.274555" xlink:href="#m6176931cfc" y="140.792727"/>
    </g>
    <g>
     <use style="fill:none;stroke:#000000;stroke-width:0.8;" x="370.274555" xlink:href="#m6176931cfc" y="103.729091"/>
    </g>
    <g>
     <use style="fill:none;stroke:#000000;stroke-width:0.8;" x="370.274555" xlink:href="#m6176931cfc" y="66.665455"/>
    </g>
    <g id="text_10">
     <!-- −1.00 -->
     <g transform="translate(373.774555 365.93392)scale(0.1 -0.1)">
      <use xlink:href="#DejaVuSans-8722"/>
      <use x="83.789062" xlink:href="#DejaVuSans-49"/>
      <use x="147.412109" xlink:href="#DejaVuSans-46"/>
      <use x="179.199219" xlink:href="#DejaVuSans-48"/>
      <use x="242.822266" xlink:href="#DejaVuSans-48"/>
     </g>
    </g>
    <g id="text_11">
     <!-- −0.75 -->
     <g transform="translate(373.774555 328.870284)scale(0.1 -0.1)">
      <use xlink:href="#DejaVuSans-8722"/>
      <use x="83.789062" xlink:href="#DejaVuSans-48"/>
      <use x="147.412109" xlink:href="#DejaVuSans-46"/>
      <use x="179.199219" xlink:href="#DejaVuSans-55"/>
      <use x="242.822266" xlink:href="#DejaVuSans-53"/>
     </g>
    </g>
    <g id="text_12">
     <!-- −0.50 -->
     <g transform="translate(373.774555 291.806648)scale(0.1 -0.1)">
      <use xlink:href="#DejaVuSans-8722"/>
      <use x="83.789062" xlink:href="#DejaVuSans-48"/>
      <use x="147.412109" xlink:href="#DejaVuSans-46"/>
      <use x="179.199219" xlink:href="#DejaVuSans-53"/>
      <use x="242.822266" xlink:href="#DejaVuSans-48"/>
     </g>
    </g>
    <g id="text_13">
     <!-- −0.25 -->
     <g transform="translate(373.774555 254.743011)scale(0.1 -0.1)">
      <use xlink:href="#DejaVuSans-8722"/>
      <use x="83.789062" xlink:href="#DejaVuSans-48"/>
      <use x="147.412109" xlink:href="#DejaVuSans-46"/>
      <use x="179.199219" xlink:href="#DejaVuSans-50"/>
      <use x="242.822266" xlink:href="#DejaVuSans-53"/>
     </g>
    </g>
    <g id="text_14">
     <!-- 0.00 -->
     <g transform="translate(373.774555 217.679375)scale(0.1 -0.1)">
      <use xlink:href="#DejaVuSans-48"/>
      <use x="63.623047" xlink:href="#DejaVuSans-46"/>
      <use x="95.410156" xlink:href="#DejaVuSans-48"/>
      <use x="159.033203" xlink:href="#DejaVuSans-48"/>
     </g>
    </g>
    <g id="text_15">
     <!-- 0.25 -->
     <g transform="translate(373.774555 180.615739)scale(0.1 -0.1)">
      <use xlink:href="#DejaVuSans-48"/>
      <use x="63.623047" xlink:href="#DejaVuSans-46"/>
      <use x="95.410156" xlink:href="#DejaVuSans-50"/>
      <use x="159.033203" xlink:href="#DejaVuSans-53"/>
     </g>
    </g>
    <g id="text_16">
     <!-- 0.50 -->
     <g transform="translate(373.774555 143.552102)scale(0.1 -0.1)">
      <use xlink:href="#DejaVuSans-48"/>
      <use x="63.623047" xlink:href="#DejaVuSans-46"/>
      <use x="95.410156" xlink:href="#DejaVuSans-53"/>
      <use x="159.033203" xlink:href="#DejaVuSans-48"/>
     </g>
    </g>
    <g id="text_17">
     <!-- 0.75 -->
     <g transform="translate(373.774555 106.488466)scale(0.1 -0.1)">
      <use xlink:href="#DejaVuSans-48"/>
      <use x="63.623047" xlink:href="#DejaVuSans-46"/>
      <use x="95.410156" xlink:href="#DejaVuSans-55"/>
      <use x="159.033203" xlink:href="#DejaVuSans-53"/>
     </g>
    </g>
    <g id="text_18">
     <!-- 1.00 -->
     <g transform="translate(373.774555 69.42483)scale(0.1 -0.1)">
      <use xlink:href="#DejaVuSans-49"/>
      <use x="63.623047" xlink:href="#DejaVuSans-46"/>
      <use x="95.410156" xlink:href="#DejaVuSans-48"/>
      <use x="159.033203" xlink:href="#DejaVuSans-48"/>
     </g>
    </g>
    <g id="patch_4">
     <path d="M 370.274555 378 
L 370.274555 51.84 
L 370.274555 32.958034 
" style="fill:none;stroke:#000000;stroke-linecap:round;"/>
     <path d="M 366.274555 40.958034 
L 370.274555 32.958034 
L 374.274555 40.958034 
L 366.274555 40.958034 
z
" style="fill:#1f77b4;stroke:#000000;stroke-linecap:round;"/>
    </g>
   </g>
  </g>
 </g>
 <defs>
  <clipPath id="p61f50a5ad5">
   <rect height="326.16" width="558" x="90" y="51.84"/>
  </clipPath>
 </defs>
</svg>
